<?xml version="1.0" encoding="utf-8" standalone="no"?>
<!DOCTYPE svg PUBLIC "-//W3C//DTD SVG 1.1//EN"
  "http://www.w3.org/Graphics/SVG/1.1/DTD/svg11.dtd">
<svg xmlns:xlink="http://www.w3.org/1999/xlink" width="459.9pt" height="318.24pt" viewBox="0 0 459.9 318.24" xmlns="http://www.w3.org/2000/svg" version="1.1">
 <metadata>
  <rdf:RDF xmlns:dc="http://purl.org/dc/elements/1.1/" xmlns:cc="http://creativecommons.org/ns#" xmlns:rdf="http://www.w3.org/1999/02/22-rdf-syntax-ns#">
   <cc:Work>
    <dc:type rdf:resource="http://purl.org/dc/dcmitype/StillImage"/>
    <dc:date>2023-11-21T18:48:42.467460</dc:date>
    <dc:format>image/svg+xml</dc:format>
    <dc:creator>
     <cc:Agent>
      <dc:title>Matplotlib v3.7.1, https://matplotlib.org/</dc:title>
     </cc:Agent>
    </dc:creator>
   </cc:Work>
  </rdf:RDF>
 </metadata>
 <defs>
  <style type="text/css">*{stroke-linejoin: round; stroke-linecap: butt}</style>
 </defs>
 <g id="figure_1">
  <g id="patch_1">
   <path d="M 0 318.24 
L 459.9 318.24 
L 459.9 0 
L 0 0 
z
" style="fill: #ffffff"/>
  </g>
  <g id="axes_1">
   <g id="LineCollection_1">
    <path d="M 33.958264 21.665455 
L 425.941736 296.574545 
" clip-path="url(#p1d8c9e9869)" style="fill: none; stroke: #ffffff"/>
    <path d="M 33.958264 21.665455 
L 425.941736 159.12 
" clip-path="url(#p1d8c9e9869)" style="fill: none; stroke: #ffffff"/>
    <path d="M 33.958264 21.665455 
L 425.941736 21.665455 
" clip-path="url(#p1d8c9e9869)" style="fill: none; stroke: #ffffff"/>
    <path d="M 33.958264 60.938182 
L 425.941736 296.574545 
" clip-path="url(#p1d8c9e9869)" style="fill: none; stroke: #ffffff"/>
    <path d="M 33.958264 60.938182 
L 425.941736 159.12 
" clip-path="url(#p1d8c9e9869)" style="fill: none; stroke: #ffffff"/>
    <path d="M 33.958264 60.938182 
L 425.941736 21.665455 
" clip-path="url(#p1d8c9e9869)" style="fill: none; stroke: #ffffff"/>
    <path d="M 33.958264 100.210909 
L 425.941736 296.574545 
" clip-path="url(#p1d8c9e9869)" style="fill: none; stroke: #ffffff"/>
    <path d="M 33.958264 100.210909 
L 425.941736 159.12 
" clip-path="url(#p1d8c9e9869)" style="fill: none; stroke: #ffffff"/>
    <path d="M 33.958264 100.210909 
L 425.941736 21.665455 
" clip-path="url(#p1d8c9e9869)" style="fill: none; stroke: #ffffff"/>
    <path d="M 33.958264 139.483636 
L 425.941736 296.574545 
" clip-path="url(#p1d8c9e9869)" style="fill: none; stroke: #ffffff"/>
    <path d="M 33.958264 139.483636 
L 425.941736 159.12 
" clip-path="url(#p1d8c9e9869)" style="fill: none; stroke: #ffffff"/>
    <path d="M 33.958264 139.483636 
L 425.941736 21.665455 
" clip-path="url(#p1d8c9e9869)" style="fill: none; stroke: #ffffff"/>
    <path d="M 33.958264 178.756364 
L 425.941736 296.574545 
" clip-path="url(#p1d8c9e9869)" style="fill: none; stroke: #ffffff"/>
    <path d="M 33.958264 178.756364 
L 425.941736 159.12 
" clip-path="url(#p1d8c9e9869)" style="fill: none; stroke: #ffffff"/>
    <path d="M 33.958264 178.756364 
L 425.941736 21.665455 
" clip-path="url(#p1d8c9e9869)" style="fill: none; stroke: #ffffff"/>
    <path d="M 33.958264 218.029091 
L 425.941736 296.574545 
" clip-path="url(#p1d8c9e9869)" style="fill: none; stroke: #ffffff"/>
    <path d="M 33.958264 218.029091 
L 425.941736 159.12 
" clip-path="url(#p1d8c9e9869)" style="fill: none; stroke: #ffffff"/>
    <path d="M 33.958264 218.029091 
L 425.941736 21.665455 
" clip-path="url(#p1d8c9e9869)" style="fill: none; stroke: #ffffff"/>
    <path d="M 33.958264 257.301818 
L 425.941736 296.574545 
" clip-path="url(#p1d8c9e9869)" style="fill: none; stroke: #ffffff"/>
    <path d="M 33.958264 257.301818 
L 425.941736 159.12 
" clip-path="url(#p1d8c9e9869)" style="fill: none; stroke: #ffffff"/>
    <path d="M 33.958264 257.301818 
L 425.941736 21.665455 
" clip-path="url(#p1d8c9e9869)" style="fill: none; stroke: #ffffff"/>
    <path d="M 33.958264 296.574545 
L 425.941736 296.574545 
" clip-path="url(#p1d8c9e9869)" style="fill: none; stroke: #ffffff"/>
    <path d="M 33.958264 296.574545 
L 425.941736 159.12 
" clip-path="url(#p1d8c9e9869)" style="fill: none; stroke: #ffffff"/>
    <path d="M 33.958264 296.574545 
L 425.941736 21.665455 
" clip-path="url(#p1d8c9e9869)" style="fill: none; stroke: #ffffff"/>
   </g>
   <g id="LineCollection_2">
    <path d="M 33.958264 21.665455 
L 425.941736 296.574545 
" clip-path="url(#p1d8c9e9869)" style="fill: none; stroke: #0f63cd; stroke-width: 0.8747"/>
    <path d="M 33.958264 21.665455 
L 425.941736 159.12 
" clip-path="url(#p1d8c9e9869)" style="fill: none; stroke: #0f63cd; stroke-width: 0.1125"/>
    <path d="M 33.958264 21.665455 
L 425.941736 21.665455 
" clip-path="url(#p1d8c9e9869)" style="fill: none; stroke: #0f63cd; stroke-width: 0.0128"/>
   </g>
   <g id="LineCollection_3">
    <path d="M 33.958264 60.938182 
L 425.941736 296.574545 
" clip-path="url(#p1d8c9e9869)" style="fill: none; stroke: #78e2cd; stroke-width: 0.7719"/>
    <path d="M 33.958264 60.938182 
L 425.941736 159.12 
" clip-path="url(#p1d8c9e9869)" style="fill: none; stroke: #78e2cd; stroke-width: 0.1343"/>
    <path d="M 33.958264 60.938182 
L 425.941736 21.665455 
" clip-path="url(#p1d8c9e9869)" style="fill: none; stroke: #78e2cd; stroke-width: 0.0938"/>
   </g>
   <g id="LineCollection_4">
    <path d="M 33.958264 100.210909 
L 425.941736 296.574545 
" clip-path="url(#p1d8c9e9869)" style="fill: none; stroke: #edd28a; stroke-width: 0.5612"/>
    <path d="M 33.958264 100.210909 
L 425.941736 159.12 
" clip-path="url(#p1d8c9e9869)" style="fill: none; stroke: #edd28a; stroke-width: 0.2238"/>
    <path d="M 33.958264 100.210909 
L 425.941736 21.665455 
" clip-path="url(#p1d8c9e9869)" style="fill: none; stroke: #edd28a; stroke-width: 0.2149"/>
   </g>
   <g id="LineCollection_5">
    <path d="M 33.958264 139.483636 
L 425.941736 296.574545 
" clip-path="url(#p1d8c9e9869)" style="fill: none; stroke: #77408f; stroke-width: 0.4556"/>
    <path d="M 33.958264 139.483636 
L 425.941736 159.12 
" clip-path="url(#p1d8c9e9869)" style="fill: none; stroke: #77408f; stroke-width: 0.2991"/>
    <path d="M 33.958264 139.483636 
L 425.941736 21.665455 
" clip-path="url(#p1d8c9e9869)" style="fill: none; stroke: #77408f; stroke-width: 0.2453"/>
   </g>
   <g id="LineCollection_6">
    <path d="M 33.958264 178.756364 
L 425.941736 296.574545 
" clip-path="url(#p1d8c9e9869)" style="fill: none; stroke: #cfc183; stroke-width: 0.2741"/>
    <path d="M 33.958264 178.756364 
L 425.941736 159.12 
" clip-path="url(#p1d8c9e9869)" style="fill: none; stroke: #cfc183; stroke-width: 0.6041"/>
    <path d="M 33.958264 178.756364 
L 425.941736 21.665455 
" clip-path="url(#p1d8c9e9869)" style="fill: none; stroke: #cfc183; stroke-width: 0.1218"/>
   </g>
   <g id="LineCollection_7">
    <path d="M 33.958264 218.029091 
L 425.941736 296.574545 
" clip-path="url(#p1d8c9e9869)" style="fill: none; stroke: #598e4a; stroke-width: 0.1111"/>
    <path d="M 33.958264 218.029091 
L 425.941736 159.12 
" clip-path="url(#p1d8c9e9869)" style="fill: none; stroke: #598e4a; stroke-width: 0.8235"/>
    <path d="M 33.958264 218.029091 
L 425.941736 21.665455 
" clip-path="url(#p1d8c9e9869)" style="fill: none; stroke: #598e4a; stroke-width: 0.0654"/>
   </g>
   <g id="LineCollection_8">
    <path d="M 33.958264 257.301818 
L 425.941736 296.574545 
" clip-path="url(#p1d8c9e9869)" style="fill: none; stroke: #c52842; stroke-width: 0.0866"/>
    <path d="M 33.958264 257.301818 
L 425.941736 159.12 
" clip-path="url(#p1d8c9e9869)" style="fill: none; stroke: #c52842; stroke-width: 0.8681"/>
    <path d="M 33.958264 257.301818 
L 425.941736 21.665455 
" clip-path="url(#p1d8c9e9869)" style="fill: none; stroke: #c52842; stroke-width: 0.0453"/>
   </g>
   <g id="LineCollection_9">
    <path d="M 33.958264 296.574545 
L 425.941736 296.574545 
" clip-path="url(#p1d8c9e9869)" style="fill: none; stroke: #ac0ee5; stroke-width: 0.0909"/>
    <path d="M 33.958264 296.574545 
L 425.941736 159.12 
" clip-path="url(#p1d8c9e9869)" style="fill: none; stroke: #ac0ee5; stroke-width: 0.8761"/>
    <path d="M 33.958264 296.574545 
L 425.941736 21.665455 
" clip-path="url(#p1d8c9e9869)" style="fill: none; stroke: #ac0ee5; stroke-width: 0.0331"/>
   </g>
   <g id="PathCollection_1">
    <defs>
     <path id="m495090f715" d="M 0 8.660254 
C 2.296726 8.660254 4.499694 7.747755 6.123724 6.123724 
C 7.747755 4.499694 8.660254 2.296726 8.660254 0 
C 8.660254 -2.296726 7.747755 -4.499694 6.123724 -6.123724 
C 4.499694 -7.747755 2.296726 -8.660254 0 -8.660254 
C -2.296726 -8.660254 -4.499694 -7.747755 -6.123724 -6.123724 
C -7.747755 -4.499694 -8.660254 -2.296726 -8.660254 0 
C -8.660254 2.296726 -7.747755 4.499694 -6.123724 6.123724 
C -4.499694 7.747755 -2.296726 8.660254 0 8.660254 
z
" style="stroke: #a0cbe2"/>
    </defs>
    <g clip-path="url(#p1d8c9e9869)">
     <use xlink:href="#m495090f715" x="33.958264" y="21.665455" style="fill: #a0cbe2; stroke: #a0cbe2"/>
     <use xlink:href="#m495090f715" x="33.958264" y="60.938182" style="fill: #a0cbe2; stroke: #a0cbe2"/>
     <use xlink:href="#m495090f715" x="33.958264" y="100.210909" style="fill: #a0cbe2; stroke: #a0cbe2"/>
     <use xlink:href="#m495090f715" x="33.958264" y="139.483636" style="fill: #a0cbe2; stroke: #a0cbe2"/>
     <use xlink:href="#m495090f715" x="33.958264" y="178.756364" style="fill: #a0cbe2; stroke: #a0cbe2"/>
     <use xlink:href="#m495090f715" x="33.958264" y="218.029091" style="fill: #a0cbe2; stroke: #a0cbe2"/>
     <use xlink:href="#m495090f715" x="33.958264" y="257.301818" style="fill: #a0cbe2; stroke: #a0cbe2"/>
     <use xlink:href="#m495090f715" x="33.958264" y="296.574545" style="fill: #a0cbe2; stroke: #a0cbe2"/>
     <use xlink:href="#m495090f715" x="425.941736" y="296.574545" style="fill: #a0cbe2; stroke: #a0cbe2"/>
     <use xlink:href="#m495090f715" x="425.941736" y="159.12" style="fill: #a0cbe2; stroke: #a0cbe2"/>
     <use xlink:href="#m495090f715" x="425.941736" y="21.665455" style="fill: #a0cbe2; stroke: #a0cbe2"/>
    </g>
   </g>
   <g id="text_1">
    <g clip-path="url(#p1d8c9e9869)">
     <!-- 0-28 days -->
     <g transform="translate(33.958264 19.585767) scale(0.1 -0.1)">
      <defs>
       <path id="DejaVuSans-30" d="M 2034 4250 
Q 1547 4250 1301 3770 
Q 1056 3291 1056 2328 
Q 1056 1369 1301 889 
Q 1547 409 2034 409 
Q 2525 409 2770 889 
Q 3016 1369 3016 2328 
Q 3016 3291 2770 3770 
Q 2525 4250 2034 4250 
z
M 2034 4750 
Q 2819 4750 3233 4129 
Q 3647 3509 3647 2328 
Q 3647 1150 3233 529 
Q 2819 -91 2034 -91 
Q 1250 -91 836 529 
Q 422 1150 422 2328 
Q 422 3509 836 4129 
Q 1250 4750 2034 4750 
z
" transform="scale(0.015625)"/>
       <path id="DejaVuSans-2d" d="M 313 2009 
L 1997 2009 
L 1997 1497 
L 313 1497 
L 313 2009 
z
" transform="scale(0.015625)"/>
       <path id="DejaVuSans-32" d="M 1228 531 
L 3431 531 
L 3431 0 
L 469 0 
L 469 531 
Q 828 903 1448 1529 
Q 2069 2156 2228 2338 
Q 2531 2678 2651 2914 
Q 2772 3150 2772 3378 
Q 2772 3750 2511 3984 
Q 2250 4219 1831 4219 
Q 1534 4219 1204 4116 
Q 875 4013 500 3803 
L 500 4441 
Q 881 4594 1212 4672 
Q 1544 4750 1819 4750 
Q 2544 4750 2975 4387 
Q 3406 4025 3406 3419 
Q 3406 3131 3298 2873 
Q 3191 2616 2906 2266 
Q 2828 2175 2409 1742 
Q 1991 1309 1228 531 
z
" transform="scale(0.015625)"/>
       <path id="DejaVuSans-38" d="M 2034 2216 
Q 1584 2216 1326 1975 
Q 1069 1734 1069 1313 
Q 1069 891 1326 650 
Q 1584 409 2034 409 
Q 2484 409 2743 651 
Q 3003 894 3003 1313 
Q 3003 1734 2745 1975 
Q 2488 2216 2034 2216 
z
M 1403 2484 
Q 997 2584 770 2862 
Q 544 3141 544 3541 
Q 544 4100 942 4425 
Q 1341 4750 2034 4750 
Q 2731 4750 3128 4425 
Q 3525 4100 3525 3541 
Q 3525 3141 3298 2862 
Q 3072 2584 2669 2484 
Q 3125 2378 3379 2068 
Q 3634 1759 3634 1313 
Q 3634 634 3220 271 
Q 2806 -91 2034 -91 
Q 1263 -91 848 271 
Q 434 634 434 1313 
Q 434 1759 690 2068 
Q 947 2378 1403 2484 
z
M 1172 3481 
Q 1172 3119 1398 2916 
Q 1625 2713 2034 2713 
Q 2441 2713 2670 2916 
Q 2900 3119 2900 3481 
Q 2900 3844 2670 4047 
Q 2441 4250 2034 4250 
Q 1625 4250 1398 4047 
Q 1172 3844 1172 3481 
z
" transform="scale(0.015625)"/>
       <path id="DejaVuSans-20" transform="scale(0.015625)"/>
       <path id="DejaVuSans-64" d="M 2906 2969 
L 2906 4863 
L 3481 4863 
L 3481 0 
L 2906 0 
L 2906 525 
Q 2725 213 2448 61 
Q 2172 -91 1784 -91 
Q 1150 -91 751 415 
Q 353 922 353 1747 
Q 353 2572 751 3078 
Q 1150 3584 1784 3584 
Q 2172 3584 2448 3432 
Q 2725 3281 2906 2969 
z
M 947 1747 
Q 947 1113 1208 752 
Q 1469 391 1925 391 
Q 2381 391 2643 752 
Q 2906 1113 2906 1747 
Q 2906 2381 2643 2742 
Q 2381 3103 1925 3103 
Q 1469 3103 1208 2742 
Q 947 2381 947 1747 
z
" transform="scale(0.015625)"/>
       <path id="DejaVuSans-61" d="M 2194 1759 
Q 1497 1759 1228 1600 
Q 959 1441 959 1056 
Q 959 750 1161 570 
Q 1363 391 1709 391 
Q 2188 391 2477 730 
Q 2766 1069 2766 1631 
L 2766 1759 
L 2194 1759 
z
M 3341 1997 
L 3341 0 
L 2766 0 
L 2766 531 
Q 2569 213 2275 61 
Q 1981 -91 1556 -91 
Q 1019 -91 701 211 
Q 384 513 384 1019 
Q 384 1609 779 1909 
Q 1175 2209 1959 2209 
L 2766 2209 
L 2766 2266 
Q 2766 2663 2505 2880 
Q 2244 3097 1772 3097 
Q 1472 3097 1187 3025 
Q 903 2953 641 2809 
L 641 3341 
Q 956 3463 1253 3523 
Q 1550 3584 1831 3584 
Q 2591 3584 2966 3190 
Q 3341 2797 3341 1997 
z
" transform="scale(0.015625)"/>
       <path id="DejaVuSans-79" d="M 2059 -325 
Q 1816 -950 1584 -1140 
Q 1353 -1331 966 -1331 
L 506 -1331 
L 506 -850 
L 844 -850 
Q 1081 -850 1212 -737 
Q 1344 -625 1503 -206 
L 1606 56 
L 191 3500 
L 800 3500 
L 1894 763 
L 2988 3500 
L 3597 3500 
L 2059 -325 
z
" transform="scale(0.015625)"/>
       <path id="DejaVuSans-73" d="M 2834 3397 
L 2834 2853 
Q 2591 2978 2328 3040 
Q 2066 3103 1784 3103 
Q 1356 3103 1142 2972 
Q 928 2841 928 2578 
Q 928 2378 1081 2264 
Q 1234 2150 1697 2047 
L 1894 2003 
Q 2506 1872 2764 1633 
Q 3022 1394 3022 966 
Q 3022 478 2636 193 
Q 2250 -91 1575 -91 
Q 1294 -91 989 -36 
Q 684 19 347 128 
L 347 722 
Q 666 556 975 473 
Q 1284 391 1588 391 
Q 1994 391 2212 530 
Q 2431 669 2431 922 
Q 2431 1156 2273 1281 
Q 2116 1406 1581 1522 
L 1381 1569 
Q 847 1681 609 1914 
Q 372 2147 372 2553 
Q 372 3047 722 3315 
Q 1072 3584 1716 3584 
Q 2034 3584 2315 3537 
Q 2597 3491 2834 3397 
z
" transform="scale(0.015625)"/>
      </defs>
      <use xlink:href="#DejaVuSans-30"/>
      <use xlink:href="#DejaVuSans-2d" x="63.623047"/>
      <use xlink:href="#DejaVuSans-32" x="99.707031"/>
      <use xlink:href="#DejaVuSans-38" x="163.330078"/>
      <use xlink:href="#DejaVuSans-20" x="226.953125"/>
      <use xlink:href="#DejaVuSans-64" x="258.740234"/>
      <use xlink:href="#DejaVuSans-61" x="322.216797"/>
      <use xlink:href="#DejaVuSans-79" x="383.496094"/>
      <use xlink:href="#DejaVuSans-73" x="442.675781"/>
     </g>
    </g>
   </g>
   <g id="text_2">
    <g clip-path="url(#p1d8c9e9869)">
     <!-- 1-59 months -->
     <g transform="translate(33.958264 58.858494) scale(0.1 -0.1)">
      <defs>
       <path id="DejaVuSans-31" d="M 794 531 
L 1825 531 
L 1825 4091 
L 703 3866 
L 703 4441 
L 1819 4666 
L 2450 4666 
L 2450 531 
L 3481 531 
L 3481 0 
L 794 0 
L 794 531 
z
" transform="scale(0.015625)"/>
       <path id="DejaVuSans-35" d="M 691 4666 
L 3169 4666 
L 3169 4134 
L 1269 4134 
L 1269 2991 
Q 1406 3038 1543 3061 
Q 1681 3084 1819 3084 
Q 2600 3084 3056 2656 
Q 3513 2228 3513 1497 
Q 3513 744 3044 326 
Q 2575 -91 1722 -91 
Q 1428 -91 1123 -41 
Q 819 9 494 109 
L 494 744 
Q 775 591 1075 516 
Q 1375 441 1709 441 
Q 2250 441 2565 725 
Q 2881 1009 2881 1497 
Q 2881 1984 2565 2268 
Q 2250 2553 1709 2553 
Q 1456 2553 1204 2497 
Q 953 2441 691 2322 
L 691 4666 
z
" transform="scale(0.015625)"/>
       <path id="DejaVuSans-39" d="M 703 97 
L 703 672 
Q 941 559 1184 500 
Q 1428 441 1663 441 
Q 2288 441 2617 861 
Q 2947 1281 2994 2138 
Q 2813 1869 2534 1725 
Q 2256 1581 1919 1581 
Q 1219 1581 811 2004 
Q 403 2428 403 3163 
Q 403 3881 828 4315 
Q 1253 4750 1959 4750 
Q 2769 4750 3195 4129 
Q 3622 3509 3622 2328 
Q 3622 1225 3098 567 
Q 2575 -91 1691 -91 
Q 1453 -91 1209 -44 
Q 966 3 703 97 
z
M 1959 2075 
Q 2384 2075 2632 2365 
Q 2881 2656 2881 3163 
Q 2881 3666 2632 3958 
Q 2384 4250 1959 4250 
Q 1534 4250 1286 3958 
Q 1038 3666 1038 3163 
Q 1038 2656 1286 2365 
Q 1534 2075 1959 2075 
z
" transform="scale(0.015625)"/>
       <path id="DejaVuSans-6d" d="M 3328 2828 
Q 3544 3216 3844 3400 
Q 4144 3584 4550 3584 
Q 5097 3584 5394 3201 
Q 5691 2819 5691 2113 
L 5691 0 
L 5113 0 
L 5113 2094 
Q 5113 2597 4934 2840 
Q 4756 3084 4391 3084 
Q 3944 3084 3684 2787 
Q 3425 2491 3425 1978 
L 3425 0 
L 2847 0 
L 2847 2094 
Q 2847 2600 2669 2842 
Q 2491 3084 2119 3084 
Q 1678 3084 1418 2786 
Q 1159 2488 1159 1978 
L 1159 0 
L 581 0 
L 581 3500 
L 1159 3500 
L 1159 2956 
Q 1356 3278 1631 3431 
Q 1906 3584 2284 3584 
Q 2666 3584 2933 3390 
Q 3200 3197 3328 2828 
z
" transform="scale(0.015625)"/>
       <path id="DejaVuSans-6f" d="M 1959 3097 
Q 1497 3097 1228 2736 
Q 959 2375 959 1747 
Q 959 1119 1226 758 
Q 1494 397 1959 397 
Q 2419 397 2687 759 
Q 2956 1122 2956 1747 
Q 2956 2369 2687 2733 
Q 2419 3097 1959 3097 
z
M 1959 3584 
Q 2709 3584 3137 3096 
Q 3566 2609 3566 1747 
Q 3566 888 3137 398 
Q 2709 -91 1959 -91 
Q 1206 -91 779 398 
Q 353 888 353 1747 
Q 353 2609 779 3096 
Q 1206 3584 1959 3584 
z
" transform="scale(0.015625)"/>
       <path id="DejaVuSans-6e" d="M 3513 2113 
L 3513 0 
L 2938 0 
L 2938 2094 
Q 2938 2591 2744 2837 
Q 2550 3084 2163 3084 
Q 1697 3084 1428 2787 
Q 1159 2491 1159 1978 
L 1159 0 
L 581 0 
L 581 3500 
L 1159 3500 
L 1159 2956 
Q 1366 3272 1645 3428 
Q 1925 3584 2291 3584 
Q 2894 3584 3203 3211 
Q 3513 2838 3513 2113 
z
" transform="scale(0.015625)"/>
       <path id="DejaVuSans-74" d="M 1172 4494 
L 1172 3500 
L 2356 3500 
L 2356 3053 
L 1172 3053 
L 1172 1153 
Q 1172 725 1289 603 
Q 1406 481 1766 481 
L 2356 481 
L 2356 0 
L 1766 0 
Q 1100 0 847 248 
Q 594 497 594 1153 
L 594 3053 
L 172 3053 
L 172 3500 
L 594 3500 
L 594 4494 
L 1172 4494 
z
" transform="scale(0.015625)"/>
       <path id="DejaVuSans-68" d="M 3513 2113 
L 3513 0 
L 2938 0 
L 2938 2094 
Q 2938 2591 2744 2837 
Q 2550 3084 2163 3084 
Q 1697 3084 1428 2787 
Q 1159 2491 1159 1978 
L 1159 0 
L 581 0 
L 581 4863 
L 1159 4863 
L 1159 2956 
Q 1366 3272 1645 3428 
Q 1925 3584 2291 3584 
Q 2894 3584 3203 3211 
Q 3513 2838 3513 2113 
z
" transform="scale(0.015625)"/>
      </defs>
      <use xlink:href="#DejaVuSans-31"/>
      <use xlink:href="#DejaVuSans-2d" x="63.623047"/>
      <use xlink:href="#DejaVuSans-35" x="99.707031"/>
      <use xlink:href="#DejaVuSans-39" x="163.330078"/>
      <use xlink:href="#DejaVuSans-20" x="226.953125"/>
      <use xlink:href="#DejaVuSans-6d" x="258.740234"/>
      <use xlink:href="#DejaVuSans-6f" x="356.152344"/>
      <use xlink:href="#DejaVuSans-6e" x="417.333984"/>
      <use xlink:href="#DejaVuSans-74" x="480.712891"/>
      <use xlink:href="#DejaVuSans-68" x="519.921875"/>
      <use xlink:href="#DejaVuSans-73" x="583.300781"/>
     </g>
    </g>
   </g>
   <g id="text_3">
    <g clip-path="url(#p1d8c9e9869)">
     <!-- 5-14 years -->
     <g transform="translate(33.958264 98.131222) scale(0.1 -0.1)">
      <defs>
       <path id="DejaVuSans-34" d="M 2419 4116 
L 825 1625 
L 2419 1625 
L 2419 4116 
z
M 2253 4666 
L 3047 4666 
L 3047 1625 
L 3713 1625 
L 3713 1100 
L 3047 1100 
L 3047 0 
L 2419 0 
L 2419 1100 
L 313 1100 
L 313 1709 
L 2253 4666 
z
" transform="scale(0.015625)"/>
       <path id="DejaVuSans-65" d="M 3597 1894 
L 3597 1613 
L 953 1613 
Q 991 1019 1311 708 
Q 1631 397 2203 397 
Q 2534 397 2845 478 
Q 3156 559 3463 722 
L 3463 178 
Q 3153 47 2828 -22 
Q 2503 -91 2169 -91 
Q 1331 -91 842 396 
Q 353 884 353 1716 
Q 353 2575 817 3079 
Q 1281 3584 2069 3584 
Q 2775 3584 3186 3129 
Q 3597 2675 3597 1894 
z
M 3022 2063 
Q 3016 2534 2758 2815 
Q 2500 3097 2075 3097 
Q 1594 3097 1305 2825 
Q 1016 2553 972 2059 
L 3022 2063 
z
" transform="scale(0.015625)"/>
       <path id="DejaVuSans-72" d="M 2631 2963 
Q 2534 3019 2420 3045 
Q 2306 3072 2169 3072 
Q 1681 3072 1420 2755 
Q 1159 2438 1159 1844 
L 1159 0 
L 581 0 
L 581 3500 
L 1159 3500 
L 1159 2956 
Q 1341 3275 1631 3429 
Q 1922 3584 2338 3584 
Q 2397 3584 2469 3576 
Q 2541 3569 2628 3553 
L 2631 2963 
z
" transform="scale(0.015625)"/>
      </defs>
      <use xlink:href="#DejaVuSans-35"/>
      <use xlink:href="#DejaVuSans-2d" x="63.623047"/>
      <use xlink:href="#DejaVuSans-31" x="99.707031"/>
      <use xlink:href="#DejaVuSans-34" x="163.330078"/>
      <use xlink:href="#DejaVuSans-20" x="226.953125"/>
      <use xlink:href="#DejaVuSans-79" x="258.740234"/>
      <use xlink:href="#DejaVuSans-65" x="317.919922"/>
      <use xlink:href="#DejaVuSans-61" x="379.443359"/>
      <use xlink:href="#DejaVuSans-72" x="440.722656"/>
      <use xlink:href="#DejaVuSans-73" x="481.835938"/>
     </g>
    </g>
   </g>
   <g id="text_4">
    <g clip-path="url(#p1d8c9e9869)">
     <!-- 15-29 years -->
     <g transform="translate(33.958264 137.403949) scale(0.1 -0.1)">
      <use xlink:href="#DejaVuSans-31"/>
      <use xlink:href="#DejaVuSans-35" x="63.623047"/>
      <use xlink:href="#DejaVuSans-2d" x="127.246094"/>
      <use xlink:href="#DejaVuSans-32" x="163.330078"/>
      <use xlink:href="#DejaVuSans-39" x="226.953125"/>
      <use xlink:href="#DejaVuSans-20" x="290.576172"/>
      <use xlink:href="#DejaVuSans-79" x="322.363281"/>
      <use xlink:href="#DejaVuSans-65" x="381.542969"/>
      <use xlink:href="#DejaVuSans-61" x="443.066406"/>
      <use xlink:href="#DejaVuSans-72" x="504.345703"/>
      <use xlink:href="#DejaVuSans-73" x="545.458984"/>
     </g>
    </g>
   </g>
   <g id="text_5">
    <g clip-path="url(#p1d8c9e9869)">
     <!-- 30-49 years -->
     <g transform="translate(33.958264 176.676676) scale(0.1 -0.1)">
      <defs>
       <path id="DejaVuSans-33" d="M 2597 2516 
Q 3050 2419 3304 2112 
Q 3559 1806 3559 1356 
Q 3559 666 3084 287 
Q 2609 -91 1734 -91 
Q 1441 -91 1130 -33 
Q 819 25 488 141 
L 488 750 
Q 750 597 1062 519 
Q 1375 441 1716 441 
Q 2309 441 2620 675 
Q 2931 909 2931 1356 
Q 2931 1769 2642 2001 
Q 2353 2234 1838 2234 
L 1294 2234 
L 1294 2753 
L 1863 2753 
Q 2328 2753 2575 2939 
Q 2822 3125 2822 3475 
Q 2822 3834 2567 4026 
Q 2313 4219 1838 4219 
Q 1578 4219 1281 4162 
Q 984 4106 628 3988 
L 628 4550 
Q 988 4650 1302 4700 
Q 1616 4750 1894 4750 
Q 2613 4750 3031 4423 
Q 3450 4097 3450 3541 
Q 3450 3153 3228 2886 
Q 3006 2619 2597 2516 
z
" transform="scale(0.015625)"/>
      </defs>
      <use xlink:href="#DejaVuSans-33"/>
      <use xlink:href="#DejaVuSans-30" x="63.623047"/>
      <use xlink:href="#DejaVuSans-2d" x="127.246094"/>
      <use xlink:href="#DejaVuSans-34" x="163.330078"/>
      <use xlink:href="#DejaVuSans-39" x="226.953125"/>
      <use xlink:href="#DejaVuSans-20" x="290.576172"/>
      <use xlink:href="#DejaVuSans-79" x="322.363281"/>
      <use xlink:href="#DejaVuSans-65" x="381.542969"/>
      <use xlink:href="#DejaVuSans-61" x="443.066406"/>
      <use xlink:href="#DejaVuSans-72" x="504.345703"/>
      <use xlink:href="#DejaVuSans-73" x="545.458984"/>
     </g>
    </g>
   </g>
   <g id="text_6">
    <g clip-path="url(#p1d8c9e9869)">
     <!-- 50-59 years -->
     <g transform="translate(33.958264 215.949403) scale(0.1 -0.1)">
      <use xlink:href="#DejaVuSans-35"/>
      <use xlink:href="#DejaVuSans-30" x="63.623047"/>
      <use xlink:href="#DejaVuSans-2d" x="127.246094"/>
      <use xlink:href="#DejaVuSans-35" x="163.330078"/>
      <use xlink:href="#DejaVuSans-39" x="226.953125"/>
      <use xlink:href="#DejaVuSans-20" x="290.576172"/>
      <use xlink:href="#DejaVuSans-79" x="322.363281"/>
      <use xlink:href="#DejaVuSans-65" x="381.542969"/>
      <use xlink:href="#DejaVuSans-61" x="443.066406"/>
      <use xlink:href="#DejaVuSans-72" x="504.345703"/>
      <use xlink:href="#DejaVuSans-73" x="545.458984"/>
     </g>
    </g>
   </g>
   <g id="text_7">
    <g clip-path="url(#p1d8c9e9869)">
     <!-- 60-69 years -->
     <g transform="translate(33.958264 255.222131) scale(0.1 -0.1)">
      <defs>
       <path id="DejaVuSans-36" d="M 2113 2584 
Q 1688 2584 1439 2293 
Q 1191 2003 1191 1497 
Q 1191 994 1439 701 
Q 1688 409 2113 409 
Q 2538 409 2786 701 
Q 3034 994 3034 1497 
Q 3034 2003 2786 2293 
Q 2538 2584 2113 2584 
z
M 3366 4563 
L 3366 3988 
Q 3128 4100 2886 4159 
Q 2644 4219 2406 4219 
Q 1781 4219 1451 3797 
Q 1122 3375 1075 2522 
Q 1259 2794 1537 2939 
Q 1816 3084 2150 3084 
Q 2853 3084 3261 2657 
Q 3669 2231 3669 1497 
Q 3669 778 3244 343 
Q 2819 -91 2113 -91 
Q 1303 -91 875 529 
Q 447 1150 447 2328 
Q 447 3434 972 4092 
Q 1497 4750 2381 4750 
Q 2619 4750 2861 4703 
Q 3103 4656 3366 4563 
z
" transform="scale(0.015625)"/>
      </defs>
      <use xlink:href="#DejaVuSans-36"/>
      <use xlink:href="#DejaVuSans-30" x="63.623047"/>
      <use xlink:href="#DejaVuSans-2d" x="127.246094"/>
      <use xlink:href="#DejaVuSans-36" x="163.330078"/>
      <use xlink:href="#DejaVuSans-39" x="226.953125"/>
      <use xlink:href="#DejaVuSans-20" x="290.576172"/>
      <use xlink:href="#DejaVuSans-79" x="322.363281"/>
      <use xlink:href="#DejaVuSans-65" x="381.542969"/>
      <use xlink:href="#DejaVuSans-61" x="443.066406"/>
      <use xlink:href="#DejaVuSans-72" x="504.345703"/>
      <use xlink:href="#DejaVuSans-73" x="545.458984"/>
     </g>
    </g>
   </g>
   <g id="text_8">
    <g clip-path="url(#p1d8c9e9869)">
     <!-- 70+ years -->
     <g transform="translate(33.958264 294.494858) scale(0.1 -0.1)">
      <defs>
       <path id="DejaVuSans-37" d="M 525 4666 
L 3525 4666 
L 3525 4397 
L 1831 0 
L 1172 0 
L 2766 4134 
L 525 4134 
L 525 4666 
z
" transform="scale(0.015625)"/>
       <path id="DejaVuSans-2b" d="M 2944 4013 
L 2944 2272 
L 4684 2272 
L 4684 1741 
L 2944 1741 
L 2944 0 
L 2419 0 
L 2419 1741 
L 678 1741 
L 678 2272 
L 2419 2272 
L 2419 4013 
L 2944 4013 
z
" transform="scale(0.015625)"/>
      </defs>
      <use xlink:href="#DejaVuSans-37"/>
      <use xlink:href="#DejaVuSans-30" x="63.623047"/>
      <use xlink:href="#DejaVuSans-2b" x="127.246094"/>
      <use xlink:href="#DejaVuSans-20" x="211.035156"/>
      <use xlink:href="#DejaVuSans-79" x="242.822266"/>
      <use xlink:href="#DejaVuSans-65" x="302.001953"/>
      <use xlink:href="#DejaVuSans-61" x="363.525391"/>
      <use xlink:href="#DejaVuSans-72" x="424.804688"/>
      <use xlink:href="#DejaVuSans-73" x="465.917969"/>
     </g>
    </g>
   </g>
   <g id="text_9">
    <g clip-path="url(#p1d8c9e9869)">
     <!-- Communicable, Maternal, Perinatal and Nutritional conditions -->
     <g transform="translate(117.793298 294.494858) scale(0.1 -0.1)">
      <defs>
       <path id="DejaVuSans-43" d="M 4122 4306 
L 4122 3641 
Q 3803 3938 3442 4084 
Q 3081 4231 2675 4231 
Q 1875 4231 1450 3742 
Q 1025 3253 1025 2328 
Q 1025 1406 1450 917 
Q 1875 428 2675 428 
Q 3081 428 3442 575 
Q 3803 722 4122 1019 
L 4122 359 
Q 3791 134 3420 21 
Q 3050 -91 2638 -91 
Q 1578 -91 968 557 
Q 359 1206 359 2328 
Q 359 3453 968 4101 
Q 1578 4750 2638 4750 
Q 3056 4750 3426 4639 
Q 3797 4528 4122 4306 
z
" transform="scale(0.015625)"/>
       <path id="DejaVuSans-75" d="M 544 1381 
L 544 3500 
L 1119 3500 
L 1119 1403 
Q 1119 906 1312 657 
Q 1506 409 1894 409 
Q 2359 409 2629 706 
Q 2900 1003 2900 1516 
L 2900 3500 
L 3475 3500 
L 3475 0 
L 2900 0 
L 2900 538 
Q 2691 219 2414 64 
Q 2138 -91 1772 -91 
Q 1169 -91 856 284 
Q 544 659 544 1381 
z
M 1991 3584 
L 1991 3584 
z
" transform="scale(0.015625)"/>
       <path id="DejaVuSans-69" d="M 603 3500 
L 1178 3500 
L 1178 0 
L 603 0 
L 603 3500 
z
M 603 4863 
L 1178 4863 
L 1178 4134 
L 603 4134 
L 603 4863 
z
" transform="scale(0.015625)"/>
       <path id="DejaVuSans-63" d="M 3122 3366 
L 3122 2828 
Q 2878 2963 2633 3030 
Q 2388 3097 2138 3097 
Q 1578 3097 1268 2742 
Q 959 2388 959 1747 
Q 959 1106 1268 751 
Q 1578 397 2138 397 
Q 2388 397 2633 464 
Q 2878 531 3122 666 
L 3122 134 
Q 2881 22 2623 -34 
Q 2366 -91 2075 -91 
Q 1284 -91 818 406 
Q 353 903 353 1747 
Q 353 2603 823 3093 
Q 1294 3584 2113 3584 
Q 2378 3584 2631 3529 
Q 2884 3475 3122 3366 
z
" transform="scale(0.015625)"/>
       <path id="DejaVuSans-62" d="M 3116 1747 
Q 3116 2381 2855 2742 
Q 2594 3103 2138 3103 
Q 1681 3103 1420 2742 
Q 1159 2381 1159 1747 
Q 1159 1113 1420 752 
Q 1681 391 2138 391 
Q 2594 391 2855 752 
Q 3116 1113 3116 1747 
z
M 1159 2969 
Q 1341 3281 1617 3432 
Q 1894 3584 2278 3584 
Q 2916 3584 3314 3078 
Q 3713 2572 3713 1747 
Q 3713 922 3314 415 
Q 2916 -91 2278 -91 
Q 1894 -91 1617 61 
Q 1341 213 1159 525 
L 1159 0 
L 581 0 
L 581 4863 
L 1159 4863 
L 1159 2969 
z
" transform="scale(0.015625)"/>
       <path id="DejaVuSans-6c" d="M 603 4863 
L 1178 4863 
L 1178 0 
L 603 0 
L 603 4863 
z
" transform="scale(0.015625)"/>
       <path id="DejaVuSans-2c" d="M 750 794 
L 1409 794 
L 1409 256 
L 897 -744 
L 494 -744 
L 750 256 
L 750 794 
z
" transform="scale(0.015625)"/>
       <path id="DejaVuSans-4d" d="M 628 4666 
L 1569 4666 
L 2759 1491 
L 3956 4666 
L 4897 4666 
L 4897 0 
L 4281 0 
L 4281 4097 
L 3078 897 
L 2444 897 
L 1241 4097 
L 1241 0 
L 628 0 
L 628 4666 
z
" transform="scale(0.015625)"/>
       <path id="DejaVuSans-50" d="M 1259 4147 
L 1259 2394 
L 2053 2394 
Q 2494 2394 2734 2622 
Q 2975 2850 2975 3272 
Q 2975 3691 2734 3919 
Q 2494 4147 2053 4147 
L 1259 4147 
z
M 628 4666 
L 2053 4666 
Q 2838 4666 3239 4311 
Q 3641 3956 3641 3272 
Q 3641 2581 3239 2228 
Q 2838 1875 2053 1875 
L 1259 1875 
L 1259 0 
L 628 0 
L 628 4666 
z
" transform="scale(0.015625)"/>
       <path id="DejaVuSans-4e" d="M 628 4666 
L 1478 4666 
L 3547 763 
L 3547 4666 
L 4159 4666 
L 4159 0 
L 3309 0 
L 1241 3903 
L 1241 0 
L 628 0 
L 628 4666 
z
" transform="scale(0.015625)"/>
      </defs>
      <use xlink:href="#DejaVuSans-43"/>
      <use xlink:href="#DejaVuSans-6f" x="69.824219"/>
      <use xlink:href="#DejaVuSans-6d" x="131.005859"/>
      <use xlink:href="#DejaVuSans-6d" x="228.417969"/>
      <use xlink:href="#DejaVuSans-75" x="325.830078"/>
      <use xlink:href="#DejaVuSans-6e" x="389.208984"/>
      <use xlink:href="#DejaVuSans-69" x="452.587891"/>
      <use xlink:href="#DejaVuSans-63" x="480.371094"/>
      <use xlink:href="#DejaVuSans-61" x="535.351562"/>
      <use xlink:href="#DejaVuSans-62" x="596.630859"/>
      <use xlink:href="#DejaVuSans-6c" x="660.107422"/>
      <use xlink:href="#DejaVuSans-65" x="687.890625"/>
      <use xlink:href="#DejaVuSans-2c" x="749.414062"/>
      <use xlink:href="#DejaVuSans-20" x="781.201172"/>
      <use xlink:href="#DejaVuSans-4d" x="812.988281"/>
      <use xlink:href="#DejaVuSans-61" x="899.267578"/>
      <use xlink:href="#DejaVuSans-74" x="960.546875"/>
      <use xlink:href="#DejaVuSans-65" x="999.755859"/>
      <use xlink:href="#DejaVuSans-72" x="1061.279297"/>
      <use xlink:href="#DejaVuSans-6e" x="1100.642578"/>
      <use xlink:href="#DejaVuSans-61" x="1164.021484"/>
      <use xlink:href="#DejaVuSans-6c" x="1225.300781"/>
      <use xlink:href="#DejaVuSans-2c" x="1253.083984"/>
      <use xlink:href="#DejaVuSans-20" x="1284.871094"/>
      <use xlink:href="#DejaVuSans-50" x="1316.658203"/>
      <use xlink:href="#DejaVuSans-65" x="1373.335938"/>
      <use xlink:href="#DejaVuSans-72" x="1434.859375"/>
      <use xlink:href="#DejaVuSans-69" x="1475.972656"/>
      <use xlink:href="#DejaVuSans-6e" x="1503.755859"/>
      <use xlink:href="#DejaVuSans-61" x="1567.134766"/>
      <use xlink:href="#DejaVuSans-74" x="1628.414062"/>
      <use xlink:href="#DejaVuSans-61" x="1667.623047"/>
      <use xlink:href="#DejaVuSans-6c" x="1728.902344"/>
      <use xlink:href="#DejaVuSans-20" x="1756.685547"/>
      <use xlink:href="#DejaVuSans-61" x="1788.472656"/>
      <use xlink:href="#DejaVuSans-6e" x="1849.751953"/>
      <use xlink:href="#DejaVuSans-64" x="1913.130859"/>
      <use xlink:href="#DejaVuSans-20" x="1976.607422"/>
      <use xlink:href="#DejaVuSans-4e" x="2008.394531"/>
      <use xlink:href="#DejaVuSans-75" x="2083.199219"/>
      <use xlink:href="#DejaVuSans-74" x="2146.578125"/>
      <use xlink:href="#DejaVuSans-72" x="2185.787109"/>
      <use xlink:href="#DejaVuSans-69" x="2226.900391"/>
      <use xlink:href="#DejaVuSans-74" x="2254.683594"/>
      <use xlink:href="#DejaVuSans-69" x="2293.892578"/>
      <use xlink:href="#DejaVuSans-6f" x="2321.675781"/>
      <use xlink:href="#DejaVuSans-6e" x="2382.857422"/>
      <use xlink:href="#DejaVuSans-61" x="2446.236328"/>
      <use xlink:href="#DejaVuSans-6c" x="2507.515625"/>
      <use xlink:href="#DejaVuSans-20" x="2535.298828"/>
      <use xlink:href="#DejaVuSans-63" x="2567.085938"/>
      <use xlink:href="#DejaVuSans-6f" x="2622.066406"/>
      <use xlink:href="#DejaVuSans-6e" x="2683.248047"/>
      <use xlink:href="#DejaVuSans-64" x="2746.626953"/>
      <use xlink:href="#DejaVuSans-69" x="2810.103516"/>
      <use xlink:href="#DejaVuSans-74" x="2837.886719"/>
      <use xlink:href="#DejaVuSans-69" x="2877.095703"/>
      <use xlink:href="#DejaVuSans-6f" x="2904.878906"/>
      <use xlink:href="#DejaVuSans-6e" x="2966.060547"/>
      <use xlink:href="#DejaVuSans-73" x="3029.439453"/>
     </g>
    </g>
   </g>
   <g id="text_10">
    <g clip-path="url(#p1d8c9e9869)">
     <!-- Noncommunicable diseases -->
     <g transform="translate(286.179236 157.040313) scale(0.1 -0.1)">
      <use xlink:href="#DejaVuSans-4e"/>
      <use xlink:href="#DejaVuSans-6f" x="74.804688"/>
      <use xlink:href="#DejaVuSans-6e" x="135.986328"/>
      <use xlink:href="#DejaVuSans-63" x="199.365234"/>
      <use xlink:href="#DejaVuSans-6f" x="254.345703"/>
      <use xlink:href="#DejaVuSans-6d" x="315.527344"/>
      <use xlink:href="#DejaVuSans-6d" x="412.939453"/>
      <use xlink:href="#DejaVuSans-75" x="510.351562"/>
      <use xlink:href="#DejaVuSans-6e" x="573.730469"/>
      <use xlink:href="#DejaVuSans-69" x="637.109375"/>
      <use xlink:href="#DejaVuSans-63" x="664.892578"/>
      <use xlink:href="#DejaVuSans-61" x="719.873047"/>
      <use xlink:href="#DejaVuSans-62" x="781.152344"/>
      <use xlink:href="#DejaVuSans-6c" x="844.628906"/>
      <use xlink:href="#DejaVuSans-65" x="872.412109"/>
      <use xlink:href="#DejaVuSans-20" x="933.935547"/>
      <use xlink:href="#DejaVuSans-64" x="965.722656"/>
      <use xlink:href="#DejaVuSans-69" x="1029.199219"/>
      <use xlink:href="#DejaVuSans-73" x="1056.982422"/>
      <use xlink:href="#DejaVuSans-65" x="1109.082031"/>
      <use xlink:href="#DejaVuSans-61" x="1170.605469"/>
      <use xlink:href="#DejaVuSans-73" x="1231.884766"/>
      <use xlink:href="#DejaVuSans-65" x="1283.984375"/>
      <use xlink:href="#DejaVuSans-73" x="1345.507812"/>
     </g>
    </g>
   </g>
   <g id="text_11">
    <g clip-path="url(#p1d8c9e9869)">
     <!-- Injuries -->
     <g transform="translate(389.287048 19.585767) scale(0.1 -0.1)">
      <defs>
       <path id="DejaVuSans-49" d="M 628 4666 
L 1259 4666 
L 1259 0 
L 628 0 
L 628 4666 
z
" transform="scale(0.015625)"/>
       <path id="DejaVuSans-6a" d="M 603 3500 
L 1178 3500 
L 1178 -63 
Q 1178 -731 923 -1031 
Q 669 -1331 103 -1331 
L -116 -1331 
L -116 -844 
L 38 -844 
Q 366 -844 484 -692 
Q 603 -541 603 -63 
L 603 3500 
z
M 603 4863 
L 1178 4863 
L 1178 4134 
L 603 4134 
L 603 4863 
z
" transform="scale(0.015625)"/>
      </defs>
      <use xlink:href="#DejaVuSans-49"/>
      <use xlink:href="#DejaVuSans-6e" x="29.492188"/>
      <use xlink:href="#DejaVuSans-6a" x="92.871094"/>
      <use xlink:href="#DejaVuSans-75" x="120.654297"/>
      <use xlink:href="#DejaVuSans-72" x="184.033203"/>
      <use xlink:href="#DejaVuSans-69" x="225.146484"/>
      <use xlink:href="#DejaVuSans-65" x="252.929688"/>
      <use xlink:href="#DejaVuSans-73" x="314.453125"/>
     </g>
    </g>
   </g>
  </g>
 </g>
 <defs>
  <clipPath id="p1d8c9e9869">
   <rect x="-7.2" y="-7.2" width="474.3" height="332.64"/>
  </clipPath>
 </defs>
</svg>
