<?xml version="1.0" encoding="utf-8" standalone="no"?>
<!DOCTYPE svg PUBLIC "-//W3C//DTD SVG 1.1//EN"
  "http://www.w3.org/Graphics/SVG/1.1/DTD/svg11.dtd">
<svg xmlns:xlink="http://www.w3.org/1999/xlink" width="316.303125pt" height="197.398125pt" viewBox="0 0 316.303125 197.398125" xmlns="http://www.w3.org/2000/svg" version="1.1">
 <metadata>
  <rdf:RDF xmlns:dc="http://purl.org/dc/elements/1.1/" xmlns:cc="http://creativecommons.org/ns#" xmlns:rdf="http://www.w3.org/1999/02/22-rdf-syntax-ns#">
   <cc:Work>
    <dc:type rdf:resource="http://purl.org/dc/dcmitype/StillImage"/>
    <dc:date>2024-01-14T14:33:40.126573</dc:date>
    <dc:format>image/svg+xml</dc:format>
    <dc:creator>
     <cc:Agent>
      <dc:title>Matplotlib v3.7.1, https://matplotlib.org/</dc:title>
     </cc:Agent>
    </dc:creator>
   </cc:Work>
  </rdf:RDF>
 </metadata>
 <defs>
  <style type="text/css">*{stroke-linejoin: round; stroke-linecap: butt}</style>
 </defs>
 <g id="figure_1">
  <g id="patch_1">
   <path d="M 0 197.398125 
L 316.303125 197.398125 
L 316.303125 0 
L 0 0 
z
" style="fill: #ffffff"/>
  </g>
  <g id="axes_1">
   <g id="patch_2">
    <path d="M 30.103125 173.52 
L 309.103125 173.52 
L 309.103125 7.2 
L 30.103125 7.2 
z
" style="fill: #ffffff"/>
   </g>
   <g id="patch_3">
    <path d="M 151.085804 173.52 
L 153.948724 173.52 
L 153.948724 173.268724 
L 151.085804 173.268724 
z
" clip-path="url(#p6881a0b90b)" style="fill: #ffa500; opacity: 0.7"/>
   </g>
   <g id="patch_4">
    <path d="M 153.948724 173.52 
L 156.811644 173.52 
L 156.811644 173.52 
L 153.948724 173.52 
z
" clip-path="url(#p6881a0b90b)" style="fill: #ffa500; opacity: 0.7"/>
   </g>
   <g id="patch_5">
    <path d="M 156.811644 173.52 
L 159.674563 173.52 
L 159.674563 173.268724 
L 156.811644 173.268724 
z
" clip-path="url(#p6881a0b90b)" style="fill: #ffa500; opacity: 0.7"/>
   </g>
   <g id="patch_6">
    <path d="M 159.674563 173.52 
L 162.537483 173.52 
L 162.537483 173.52 
L 159.674563 173.52 
z
" clip-path="url(#p6881a0b90b)" style="fill: #ffa500; opacity: 0.7"/>
   </g>
   <g id="patch_7">
    <path d="M 162.537483 173.52 
L 165.400403 173.52 
L 165.400403 172.263621 
L 162.537483 172.263621 
z
" clip-path="url(#p6881a0b90b)" style="fill: #ffa500; opacity: 0.7"/>
   </g>
   <g id="patch_8">
    <path d="M 165.400403 173.52 
L 168.263323 173.52 
L 168.263323 172.766172 
L 165.400403 172.766172 
z
" clip-path="url(#p6881a0b90b)" style="fill: #ffa500; opacity: 0.7"/>
   </g>
   <g id="patch_9">
    <path d="M 168.263323 173.52 
L 171.126242 173.52 
L 171.126242 172.263621 
L 168.263323 172.263621 
z
" clip-path="url(#p6881a0b90b)" style="fill: #ffa500; opacity: 0.7"/>
   </g>
   <g id="patch_10">
    <path d="M 171.126242 173.52 
L 173.989162 173.52 
L 173.989162 171.007241 
L 171.126242 171.007241 
z
" clip-path="url(#p6881a0b90b)" style="fill: #ffa500; opacity: 0.7"/>
   </g>
   <g id="patch_11">
    <path d="M 173.989162 173.52 
L 176.852082 173.52 
L 176.852082 168.745758 
L 173.989162 168.745758 
z
" clip-path="url(#p6881a0b90b)" style="fill: #ffa500; opacity: 0.7"/>
   </g>
   <g id="patch_12">
    <path d="M 176.852082 173.52 
L 179.715002 173.52 
L 179.715002 165.981724 
L 176.852082 165.981724 
z
" clip-path="url(#p6881a0b90b)" style="fill: #ffa500; opacity: 0.7"/>
   </g>
   <g id="patch_13">
    <path d="M 179.715002 173.52 
L 182.577922 173.52 
L 182.577922 161.207482 
L 179.715002 161.207482 
z
" clip-path="url(#p6881a0b90b)" style="fill: #ffa500; opacity: 0.7"/>
   </g>
   <g id="patch_14">
    <path d="M 182.577922 173.52 
L 185.440841 173.52 
L 185.440841 160.202378 
L 182.577922 160.202378 
z
" clip-path="url(#p6881a0b90b)" style="fill: #ffa500; opacity: 0.7"/>
   </g>
   <g id="patch_15">
    <path d="M 185.440841 173.52 
L 188.303761 173.52 
L 188.303761 157.689619 
L 185.440841 157.689619 
z
" clip-path="url(#p6881a0b90b)" style="fill: #ffa500; opacity: 0.7"/>
   </g>
   <g id="patch_16">
    <path d="M 188.303761 173.52 
L 191.166681 173.52 
L 191.166681 145.377101 
L 188.303761 145.377101 
z
" clip-path="url(#p6881a0b90b)" style="fill: #ffa500; opacity: 0.7"/>
   </g>
   <g id="patch_17">
    <path d="M 191.166681 173.52 
L 194.029601 173.52 
L 194.029601 138.0901 
L 191.166681 138.0901 
z
" clip-path="url(#p6881a0b90b)" style="fill: #ffa500; opacity: 0.7"/>
   </g>
   <g id="patch_18">
    <path d="M 194.029601 173.52 
L 196.892521 173.52 
L 196.892521 126.028858 
L 194.029601 126.028858 
z
" clip-path="url(#p6881a0b90b)" style="fill: #ffa500; opacity: 0.7"/>
   </g>
   <g id="patch_19">
    <path d="M 196.892521 173.52 
L 199.75544 173.52 
L 199.75544 116.229099 
L 196.892521 116.229099 
z
" clip-path="url(#p6881a0b90b)" style="fill: #ffa500; opacity: 0.7"/>
   </g>
   <g id="patch_20">
    <path d="M 199.75544 173.52 
L 202.61836 173.52 
L 202.61836 95.875752 
L 199.75544 95.875752 
z
" clip-path="url(#p6881a0b90b)" style="fill: #ffa500; opacity: 0.7"/>
   </g>
   <g id="patch_21">
    <path d="M 202.61836 173.52 
L 205.48128 173.52 
L 205.48128 79.54282 
L 202.61836 79.54282 
z
" clip-path="url(#p6881a0b90b)" style="fill: #ffa500; opacity: 0.7"/>
   </g>
   <g id="patch_22">
    <path d="M 205.48128 173.52 
L 208.3442 173.52 
L 208.3442 70.748164 
L 205.48128 70.748164 
z
" clip-path="url(#p6881a0b90b)" style="fill: #ffa500; opacity: 0.7"/>
   </g>
   <g id="patch_23">
    <path d="M 208.3442 173.52 
L 211.207119 173.52 
L 211.207119 56.425438 
L 208.3442 56.425438 
z
" clip-path="url(#p6881a0b90b)" style="fill: #ffa500; opacity: 0.7"/>
   </g>
   <g id="patch_24">
    <path d="M 211.207119 173.52 
L 214.070039 173.52 
L 214.070039 45.118024 
L 211.207119 45.118024 
z
" clip-path="url(#p6881a0b90b)" style="fill: #ffa500; opacity: 0.7"/>
   </g>
   <g id="patch_25">
    <path d="M 214.070039 173.52 
L 216.932959 173.52 
L 216.932959 36.323368 
L 214.070039 36.323368 
z
" clip-path="url(#p6881a0b90b)" style="fill: #ffa500; opacity: 0.7"/>
   </g>
   <g id="patch_26">
    <path d="M 216.932959 173.52 
L 219.795879 173.52 
L 219.795879 24.01085 
L 216.932959 24.01085 
z
" clip-path="url(#p6881a0b90b)" style="fill: #ffa500; opacity: 0.7"/>
   </g>
   <g id="patch_27">
    <path d="M 219.795879 173.52 
L 222.658799 173.52 
L 222.658799 20.241711 
L 219.795879 20.241711 
z
" clip-path="url(#p6881a0b90b)" style="fill: #ffa500; opacity: 0.7"/>
   </g>
   <g id="patch_28">
    <path d="M 222.658799 173.52 
L 225.521718 173.52 
L 225.521718 16.472573 
L 222.658799 16.472573 
z
" clip-path="url(#p6881a0b90b)" style="fill: #ffa500; opacity: 0.7"/>
   </g>
   <g id="patch_29">
    <path d="M 225.521718 173.52 
L 228.384638 173.52 
L 228.384638 15.718745 
L 225.521718 15.718745 
z
" clip-path="url(#p6881a0b90b)" style="fill: #ffa500; opacity: 0.7"/>
   </g>
   <g id="patch_30">
    <path d="M 228.384638 173.52 
L 231.247558 173.52 
L 231.247558 19.487884 
L 228.384638 19.487884 
z
" clip-path="url(#p6881a0b90b)" style="fill: #ffa500; opacity: 0.7"/>
   </g>
   <g id="patch_31">
    <path d="M 231.247558 173.52 
L 234.110478 173.52 
L 234.110478 38.584851 
L 231.247558 38.584851 
z
" clip-path="url(#p6881a0b90b)" style="fill: #ffa500; opacity: 0.7"/>
   </g>
   <g id="patch_32">
    <path d="M 234.110478 173.52 
L 236.973398 173.52 
L 236.973398 48.133334 
L 234.110478 48.133334 
z
" clip-path="url(#p6881a0b90b)" style="fill: #ffa500; opacity: 0.7"/>
   </g>
   <g id="patch_33">
    <path d="M 236.973398 173.52 
L 239.836317 173.52 
L 239.836317 56.676714 
L 236.973398 56.676714 
z
" clip-path="url(#p6881a0b90b)" style="fill: #ffa500; opacity: 0.7"/>
   </g>
   <g id="patch_34">
    <path d="M 239.836317 173.52 
L 242.699237 173.52 
L 242.699237 67.984129 
L 239.836317 67.984129 
z
" clip-path="url(#p6881a0b90b)" style="fill: #ffa500; opacity: 0.7"/>
   </g>
   <g id="patch_35">
    <path d="M 242.699237 173.52 
L 245.562157 173.52 
L 245.562157 87.081096 
L 242.699237 87.081096 
z
" clip-path="url(#p6881a0b90b)" style="fill: #ffa500; opacity: 0.7"/>
   </g>
   <g id="patch_36">
    <path d="M 245.562157 173.52 
L 248.425077 173.52 
L 248.425077 106.178063 
L 245.562157 106.178063 
z
" clip-path="url(#p6881a0b90b)" style="fill: #ffa500; opacity: 0.7"/>
   </g>
   <g id="patch_37">
    <path d="M 248.425077 173.52 
L 251.287997 173.52 
L 251.287997 115.977823 
L 248.425077 115.977823 
z
" clip-path="url(#p6881a0b90b)" style="fill: #ffa500; opacity: 0.7"/>
   </g>
   <g id="patch_38">
    <path d="M 251.287997 173.52 
L 254.150916 173.52 
L 254.150916 128.039065 
L 251.287997 128.039065 
z
" clip-path="url(#p6881a0b90b)" style="fill: #ffa500; opacity: 0.7"/>
   </g>
   <g id="patch_39">
    <path d="M 254.150916 173.52 
L 257.013836 173.52 
L 257.013836 136.833721 
L 254.150916 136.833721 
z
" clip-path="url(#p6881a0b90b)" style="fill: #ffa500; opacity: 0.7"/>
   </g>
   <g id="patch_40">
    <path d="M 257.013836 173.52 
L 259.876756 173.52 
L 259.876756 147.638584 
L 257.013836 147.638584 
z
" clip-path="url(#p6881a0b90b)" style="fill: #ffa500; opacity: 0.7"/>
   </g>
   <g id="patch_41">
    <path d="M 259.876756 173.52 
L 262.739676 173.52 
L 262.739676 157.438343 
L 259.876756 157.438343 
z
" clip-path="url(#p6881a0b90b)" style="fill: #ffa500; opacity: 0.7"/>
   </g>
   <g id="patch_42">
    <path d="M 262.739676 173.52 
L 265.602595 173.52 
L 265.602595 160.956206 
L 262.739676 160.956206 
z
" clip-path="url(#p6881a0b90b)" style="fill: #ffa500; opacity: 0.7"/>
   </g>
   <g id="patch_43">
    <path d="M 265.602595 173.52 
L 268.465515 173.52 
L 268.465515 164.222792 
L 265.602595 164.222792 
z
" clip-path="url(#p6881a0b90b)" style="fill: #ffa500; opacity: 0.7"/>
   </g>
   <g id="patch_44">
    <path d="M 268.465515 173.52 
L 271.328435 173.52 
L 271.328435 164.97662 
L 268.465515 164.97662 
z
" clip-path="url(#p6881a0b90b)" style="fill: #ffa500; opacity: 0.7"/>
   </g>
   <g id="patch_45">
    <path d="M 271.328435 173.52 
L 274.191355 173.52 
L 274.191355 171.509793 
L 271.328435 171.509793 
z
" clip-path="url(#p6881a0b90b)" style="fill: #ffa500; opacity: 0.7"/>
   </g>
   <g id="patch_46">
    <path d="M 274.191355 173.52 
L 277.054275 173.52 
L 277.054275 172.514896 
L 274.191355 172.514896 
z
" clip-path="url(#p6881a0b90b)" style="fill: #ffa500; opacity: 0.7"/>
   </g>
   <g id="patch_47">
    <path d="M 277.054275 173.52 
L 279.917194 173.52 
L 279.917194 172.263621 
L 277.054275 172.263621 
z
" clip-path="url(#p6881a0b90b)" style="fill: #ffa500; opacity: 0.7"/>
   </g>
   <g id="patch_48">
    <path d="M 279.917194 173.52 
L 282.780114 173.52 
L 282.780114 172.766172 
L 279.917194 172.766172 
z
" clip-path="url(#p6881a0b90b)" style="fill: #ffa500; opacity: 0.7"/>
   </g>
   <g id="patch_49">
    <path d="M 282.780114 173.52 
L 285.643034 173.52 
L 285.643034 172.766172 
L 282.780114 172.766172 
z
" clip-path="url(#p6881a0b90b)" style="fill: #ffa500; opacity: 0.7"/>
   </g>
   <g id="patch_50">
    <path d="M 285.643034 173.52 
L 288.505954 173.52 
L 288.505954 173.268724 
L 285.643034 173.268724 
z
" clip-path="url(#p6881a0b90b)" style="fill: #ffa500; opacity: 0.7"/>
   </g>
   <g id="patch_51">
    <path d="M 288.505954 173.52 
L 291.368874 173.52 
L 291.368874 172.766172 
L 288.505954 172.766172 
z
" clip-path="url(#p6881a0b90b)" style="fill: #ffa500; opacity: 0.7"/>
   </g>
   <g id="patch_52">
    <path d="M 291.368874 173.52 
L 294.231793 173.52 
L 294.231793 173.268724 
L 291.368874 173.268724 
z
" clip-path="url(#p6881a0b90b)" style="fill: #ffa500; opacity: 0.7"/>
   </g>
   <g id="matplotlib.axis_1">
    <g id="xtick_1">
     <g id="line2d_1">
      <defs>
       <path id="maa857d39af" d="M 0 0 
L 0 3.5 
" style="stroke: #000000; stroke-width: 0.8"/>
      </defs>
      <g>
       <use xlink:href="#maa857d39af" x="42.784943" y="173.52" style="stroke: #000000; stroke-width: 0.8"/>
      </g>
     </g>
     <g id="text_1">
      <!-- 0 -->
      <g transform="translate(39.603693 188.118438) scale(0.1 -0.1)">
       <defs>
        <path id="DejaVuSans-30" d="M 2034 4250 
Q 1547 4250 1301 3770 
Q 1056 3291 1056 2328 
Q 1056 1369 1301 889 
Q 1547 409 2034 409 
Q 2525 409 2770 889 
Q 3016 1369 3016 2328 
Q 3016 3291 2770 3770 
Q 2525 4250 2034 4250 
z
M 2034 4750 
Q 2819 4750 3233 4129 
Q 3647 3509 3647 2328 
Q 3647 1150 3233 529 
Q 2819 -91 2034 -91 
Q 1250 -91 836 529 
Q 422 1150 422 2328 
Q 422 3509 836 4129 
Q 1250 4750 2034 4750 
z
" transform="scale(0.015625)"/>
       </defs>
       <use xlink:href="#DejaVuSans-30"/>
      </g>
     </g>
    </g>
    <g id="xtick_2">
     <g id="line2d_2">
      <g>
       <use xlink:href="#maa857d39af" x="79.018709" y="173.52" style="stroke: #000000; stroke-width: 0.8"/>
      </g>
     </g>
     <g id="text_2">
      <!-- 1 -->
      <g transform="translate(75.837459 188.118438) scale(0.1 -0.1)">
       <defs>
        <path id="DejaVuSans-31" d="M 794 531 
L 1825 531 
L 1825 4091 
L 703 3866 
L 703 4441 
L 1819 4666 
L 2450 4666 
L 2450 531 
L 3481 531 
L 3481 0 
L 794 0 
L 794 531 
z
" transform="scale(0.015625)"/>
       </defs>
       <use xlink:href="#DejaVuSans-31"/>
      </g>
     </g>
    </g>
    <g id="xtick_3">
     <g id="line2d_3">
      <g>
       <use xlink:href="#maa857d39af" x="115.252476" y="173.52" style="stroke: #000000; stroke-width: 0.8"/>
      </g>
     </g>
     <g id="text_3">
      <!-- 2 -->
      <g transform="translate(112.071226 188.118438) scale(0.1 -0.1)">
       <defs>
        <path id="DejaVuSans-32" d="M 1228 531 
L 3431 531 
L 3431 0 
L 469 0 
L 469 531 
Q 828 903 1448 1529 
Q 2069 2156 2228 2338 
Q 2531 2678 2651 2914 
Q 2772 3150 2772 3378 
Q 2772 3750 2511 3984 
Q 2250 4219 1831 4219 
Q 1534 4219 1204 4116 
Q 875 4013 500 3803 
L 500 4441 
Q 881 4594 1212 4672 
Q 1544 4750 1819 4750 
Q 2544 4750 2975 4387 
Q 3406 4025 3406 3419 
Q 3406 3131 3298 2873 
Q 3191 2616 2906 2266 
Q 2828 2175 2409 1742 
Q 1991 1309 1228 531 
z
" transform="scale(0.015625)"/>
       </defs>
       <use xlink:href="#DejaVuSans-32"/>
      </g>
     </g>
    </g>
    <g id="xtick_4">
     <g id="line2d_4">
      <g>
       <use xlink:href="#maa857d39af" x="151.486242" y="173.52" style="stroke: #000000; stroke-width: 0.8"/>
      </g>
     </g>
     <g id="text_4">
      <!-- 3 -->
      <g transform="translate(148.304992 188.118438) scale(0.1 -0.1)">
       <defs>
        <path id="DejaVuSans-33" d="M 2597 2516 
Q 3050 2419 3304 2112 
Q 3559 1806 3559 1356 
Q 3559 666 3084 287 
Q 2609 -91 1734 -91 
Q 1441 -91 1130 -33 
Q 819 25 488 141 
L 488 750 
Q 750 597 1062 519 
Q 1375 441 1716 441 
Q 2309 441 2620 675 
Q 2931 909 2931 1356 
Q 2931 1769 2642 2001 
Q 2353 2234 1838 2234 
L 1294 2234 
L 1294 2753 
L 1863 2753 
Q 2328 2753 2575 2939 
Q 2822 3125 2822 3475 
Q 2822 3834 2567 4026 
Q 2313 4219 1838 4219 
Q 1578 4219 1281 4162 
Q 984 4106 628 3988 
L 628 4550 
Q 988 4650 1302 4700 
Q 1616 4750 1894 4750 
Q 2613 4750 3031 4423 
Q 3450 4097 3450 3541 
Q 3450 3153 3228 2886 
Q 3006 2619 2597 2516 
z
" transform="scale(0.015625)"/>
       </defs>
       <use xlink:href="#DejaVuSans-33"/>
      </g>
     </g>
    </g>
    <g id="xtick_5">
     <g id="line2d_5">
      <g>
       <use xlink:href="#maa857d39af" x="187.720008" y="173.52" style="stroke: #000000; stroke-width: 0.8"/>
      </g>
     </g>
     <g id="text_5">
      <!-- 4 -->
      <g transform="translate(184.538758 188.118438) scale(0.1 -0.1)">
       <defs>
        <path id="DejaVuSans-34" d="M 2419 4116 
L 825 1625 
L 2419 1625 
L 2419 4116 
z
M 2253 4666 
L 3047 4666 
L 3047 1625 
L 3713 1625 
L 3713 1100 
L 3047 1100 
L 3047 0 
L 2419 0 
L 2419 1100 
L 313 1100 
L 313 1709 
L 2253 4666 
z
" transform="scale(0.015625)"/>
       </defs>
       <use xlink:href="#DejaVuSans-34"/>
      </g>
     </g>
    </g>
    <g id="xtick_6">
     <g id="line2d_6">
      <g>
       <use xlink:href="#maa857d39af" x="223.953774" y="173.52" style="stroke: #000000; stroke-width: 0.8"/>
      </g>
     </g>
     <g id="text_6">
      <!-- 5 -->
      <g transform="translate(220.772524 188.118438) scale(0.1 -0.1)">
       <defs>
        <path id="DejaVuSans-35" d="M 691 4666 
L 3169 4666 
L 3169 4134 
L 1269 4134 
L 1269 2991 
Q 1406 3038 1543 3061 
Q 1681 3084 1819 3084 
Q 2600 3084 3056 2656 
Q 3513 2228 3513 1497 
Q 3513 744 3044 326 
Q 2575 -91 1722 -91 
Q 1428 -91 1123 -41 
Q 819 9 494 109 
L 494 744 
Q 775 591 1075 516 
Q 1375 441 1709 441 
Q 2250 441 2565 725 
Q 2881 1009 2881 1497 
Q 2881 1984 2565 2268 
Q 2250 2553 1709 2553 
Q 1456 2553 1204 2497 
Q 953 2441 691 2322 
L 691 4666 
z
" transform="scale(0.015625)"/>
       </defs>
       <use xlink:href="#DejaVuSans-35"/>
      </g>
     </g>
    </g>
    <g id="xtick_7">
     <g id="line2d_7">
      <g>
       <use xlink:href="#maa857d39af" x="260.187541" y="173.52" style="stroke: #000000; stroke-width: 0.8"/>
      </g>
     </g>
     <g id="text_7">
      <!-- 6 -->
      <g transform="translate(257.006291 188.118438) scale(0.1 -0.1)">
       <defs>
        <path id="DejaVuSans-36" d="M 2113 2584 
Q 1688 2584 1439 2293 
Q 1191 2003 1191 1497 
Q 1191 994 1439 701 
Q 1688 409 2113 409 
Q 2538 409 2786 701 
Q 3034 994 3034 1497 
Q 3034 2003 2786 2293 
Q 2538 2584 2113 2584 
z
M 3366 4563 
L 3366 3988 
Q 3128 4100 2886 4159 
Q 2644 4219 2406 4219 
Q 1781 4219 1451 3797 
Q 1122 3375 1075 2522 
Q 1259 2794 1537 2939 
Q 1816 3084 2150 3084 
Q 2853 3084 3261 2657 
Q 3669 2231 3669 1497 
Q 3669 778 3244 343 
Q 2819 -91 2113 -91 
Q 1303 -91 875 529 
Q 447 1150 447 2328 
Q 447 3434 972 4092 
Q 1497 4750 2381 4750 
Q 2619 4750 2861 4703 
Q 3103 4656 3366 4563 
z
" transform="scale(0.015625)"/>
       </defs>
       <use xlink:href="#DejaVuSans-36"/>
      </g>
     </g>
    </g>
    <g id="xtick_8">
     <g id="line2d_8">
      <g>
       <use xlink:href="#maa857d39af" x="296.421307" y="173.52" style="stroke: #000000; stroke-width: 0.8"/>
      </g>
     </g>
     <g id="text_8">
      <!-- 7 -->
      <g transform="translate(293.240057 188.118438) scale(0.1 -0.1)">
       <defs>
        <path id="DejaVuSans-37" d="M 525 4666 
L 3525 4666 
L 3525 4397 
L 1831 0 
L 1172 0 
L 2766 4134 
L 525 4134 
L 525 4666 
z
" transform="scale(0.015625)"/>
       </defs>
       <use xlink:href="#DejaVuSans-37"/>
      </g>
     </g>
    </g>
   </g>
   <g id="matplotlib.axis_2">
    <g id="ytick_1">
     <g id="line2d_9">
      <defs>
       <path id="m5f27fa5be3" d="M 0 0 
L -3.5 0 
" style="stroke: #000000; stroke-width: 0.8"/>
      </defs>
      <g>
       <use xlink:href="#m5f27fa5be3" x="30.103125" y="173.52" style="stroke: #000000; stroke-width: 0.8"/>
      </g>
     </g>
     <g id="text_9">
      <!-- 0.0 -->
      <g transform="translate(7.2 177.319219) scale(0.1 -0.1)">
       <defs>
        <path id="DejaVuSans-2e" d="M 684 794 
L 1344 794 
L 1344 0 
L 684 0 
L 684 794 
z
" transform="scale(0.015625)"/>
       </defs>
       <use xlink:href="#DejaVuSans-30"/>
       <use xlink:href="#DejaVuSans-2e" x="63.623047"/>
       <use xlink:href="#DejaVuSans-30" x="95.410156"/>
      </g>
     </g>
    </g>
    <g id="ytick_2">
     <g id="line2d_10">
      <g>
       <use xlink:href="#m5f27fa5be3" x="30.103125" y="133.812138" style="stroke: #000000; stroke-width: 0.8"/>
      </g>
     </g>
     <g id="text_10">
      <!-- 0.2 -->
      <g transform="translate(7.2 137.611357) scale(0.1 -0.1)">
       <use xlink:href="#DejaVuSans-30"/>
       <use xlink:href="#DejaVuSans-2e" x="63.623047"/>
       <use xlink:href="#DejaVuSans-32" x="95.410156"/>
      </g>
     </g>
    </g>
    <g id="ytick_3">
     <g id="line2d_11">
      <g>
       <use xlink:href="#m5f27fa5be3" x="30.103125" y="94.104276" style="stroke: #000000; stroke-width: 0.8"/>
      </g>
     </g>
     <g id="text_11">
      <!-- 0.4 -->
      <g transform="translate(7.2 97.903494) scale(0.1 -0.1)">
       <use xlink:href="#DejaVuSans-30"/>
       <use xlink:href="#DejaVuSans-2e" x="63.623047"/>
       <use xlink:href="#DejaVuSans-34" x="95.410156"/>
      </g>
     </g>
    </g>
    <g id="ytick_4">
     <g id="line2d_12">
      <g>
       <use xlink:href="#m5f27fa5be3" x="30.103125" y="54.396413" style="stroke: #000000; stroke-width: 0.8"/>
      </g>
     </g>
     <g id="text_12">
      <!-- 0.6 -->
      <g transform="translate(7.2 58.195632) scale(0.1 -0.1)">
       <use xlink:href="#DejaVuSans-30"/>
       <use xlink:href="#DejaVuSans-2e" x="63.623047"/>
       <use xlink:href="#DejaVuSans-36" x="95.410156"/>
      </g>
     </g>
    </g>
    <g id="ytick_5">
     <g id="line2d_13">
      <g>
       <use xlink:href="#m5f27fa5be3" x="30.103125" y="14.688551" style="stroke: #000000; stroke-width: 0.8"/>
      </g>
     </g>
     <g id="text_13">
      <!-- 0.8 -->
      <g transform="translate(7.2 18.48777) scale(0.1 -0.1)">
       <defs>
        <path id="DejaVuSans-38" d="M 2034 2216 
Q 1584 2216 1326 1975 
Q 1069 1734 1069 1313 
Q 1069 891 1326 650 
Q 1584 409 2034 409 
Q 2484 409 2743 651 
Q 3003 894 3003 1313 
Q 3003 1734 2745 1975 
Q 2488 2216 2034 2216 
z
M 1403 2484 
Q 997 2584 770 2862 
Q 544 3141 544 3541 
Q 544 4100 942 4425 
Q 1341 4750 2034 4750 
Q 2731 4750 3128 4425 
Q 3525 4100 3525 3541 
Q 3525 3141 3298 2862 
Q 3072 2584 2669 2484 
Q 3125 2378 3379 2068 
Q 3634 1759 3634 1313 
Q 3634 634 3220 271 
Q 2806 -91 2034 -91 
Q 1263 -91 848 271 
Q 434 634 434 1313 
Q 434 1759 690 2068 
Q 947 2378 1403 2484 
z
M 1172 3481 
Q 1172 3119 1398 2916 
Q 1625 2713 2034 2713 
Q 2441 2713 2670 2916 
Q 2900 3119 2900 3481 
Q 2900 3844 2670 4047 
Q 2441 4250 2034 4250 
Q 1625 4250 1398 4047 
Q 1172 3844 1172 3481 
z
" transform="scale(0.015625)"/>
       </defs>
       <use xlink:href="#DejaVuSans-30"/>
       <use xlink:href="#DejaVuSans-2e" x="63.623047"/>
       <use xlink:href="#DejaVuSans-38" x="95.410156"/>
      </g>
     </g>
    </g>
   </g>
   <g id="line2d_14">
    <path d="M 42.784943 173.52 
L 154.60859 173.415678 
L 160.199773 173.195873 
L 164.266087 172.823692 
L 167.315823 172.324615 
L 169.85727 171.684748 
L 171.890427 170.97028 
L 173.923584 170.022001 
L 175.956741 168.781104 
L 177.481609 167.618249 
L 179.006477 166.221931 
L 180.531345 164.558962 
L 182.056213 162.594735 
L 183.581081 160.293986 
L 185.105949 157.62175 
L 186.630817 154.544512 
L 188.155685 151.031528 
L 189.680553 147.05632 
L 191.71371 141.002434 
L 193.746867 134.063716 
L 195.780024 126.24357 
L 197.813181 117.582439 
L 200.354628 105.703495 
L 203.404364 90.264582 
L 211.536993 48.267808 
L 213.57015 39.10293 
L 215.603307 31.072816 
L 217.128175 25.96158 
L 218.653043 21.745976 
L 219.669622 19.476344 
L 220.6862 17.66427 
L 221.702779 16.326595 
L 222.719357 15.475839 
L 223.227647 15.235736 
L 223.735936 15.12 
L 224.244225 15.128906 
L 224.752515 15.262432 
L 225.769093 15.901791 
L 226.785672 17.032059 
L 227.802251 18.642635 
L 228.818829 20.718501 
L 229.835408 23.240456 
L 231.360276 27.808325 
L 232.885144 33.234703 
L 234.410012 39.412433 
L 236.443169 48.612404 
L 238.984615 61.236326 
L 249.150401 113.296714 
L 251.691848 124.456266 
L 253.725005 132.461397 
L 255.758162 139.590451 
L 257.79132 145.832588 
L 259.824477 151.209105 
L 261.349345 154.700698 
L 262.874213 157.757927 
L 264.399081 160.411696 
L 265.923948 162.695621 
L 267.448816 164.644705 
L 268.973684 166.2942 
L 270.498552 167.678661 
L 272.02342 168.831195 
L 274.056577 170.060532 
L 276.089735 170.9995 
L 278.122892 171.706596 
L 280.664338 172.339509 
L 283.714074 172.832832 
L 287.272099 173.167351 
L 292.354992 173.392826 
L 296.421307 173.466859 
L 296.421307 173.466859 
" clip-path="url(#p6881a0b90b)" style="fill: none; stroke: #1f77b4; stroke-width: 1.5; stroke-linecap: square"/>
   </g>
   <g id="patch_53">
    <path d="M 30.103125 173.52 
L 30.103125 7.2 
" style="fill: none; stroke: #000000; stroke-width: 0.8; stroke-linejoin: miter; stroke-linecap: square"/>
   </g>
   <g id="patch_54">
    <path d="M 309.103125 173.52 
L 309.103125 7.2 
" style="fill: none; stroke: #000000; stroke-width: 0.8; stroke-linejoin: miter; stroke-linecap: square"/>
   </g>
   <g id="patch_55">
    <path d="M 30.103125 173.52 
L 309.103125 173.52 
" style="fill: none; stroke: #000000; stroke-width: 0.8; stroke-linejoin: miter; stroke-linecap: square"/>
   </g>
   <g id="patch_56">
    <path d="M 30.103125 7.2 
L 309.103125 7.2 
" style="fill: none; stroke: #000000; stroke-width: 0.8; stroke-linejoin: miter; stroke-linecap: square"/>
   </g>
   <g id="legend_1">
    <g id="patch_57">
     <path d="M 37.103125 29.878125 
L 173.670312 29.878125 
Q 175.670312 29.878125 175.670312 27.878125 
L 175.670312 14.2 
Q 175.670312 12.2 173.670312 12.2 
L 37.103125 12.2 
Q 35.103125 12.2 35.103125 14.2 
L 35.103125 27.878125 
Q 35.103125 29.878125 37.103125 29.878125 
z
" style="fill: #ffffff; opacity: 0.8; stroke: #cccccc; stroke-linejoin: miter"/>
    </g>
    <g id="line2d_15">
     <path d="M 39.103125 20.298438 
L 49.103125 20.298438 
L 59.103125 20.298438 
" style="fill: none; stroke: #1f77b4; stroke-width: 1.5; stroke-linecap: square"/>
    </g>
    <g id="text_14">
     <!-- mu = 5; sigma = 0.5 -->
     <g transform="translate(67.103125 23.798438) scale(0.1 -0.1)">
      <defs>
       <path id="DejaVuSans-6d" d="M 3328 2828 
Q 3544 3216 3844 3400 
Q 4144 3584 4550 3584 
Q 5097 3584 5394 3201 
Q 5691 2819 5691 2113 
L 5691 0 
L 5113 0 
L 5113 2094 
Q 5113 2597 4934 2840 
Q 4756 3084 4391 3084 
Q 3944 3084 3684 2787 
Q 3425 2491 3425 1978 
L 3425 0 
L 2847 0 
L 2847 2094 
Q 2847 2600 2669 2842 
Q 2491 3084 2119 3084 
Q 1678 3084 1418 2786 
Q 1159 2488 1159 1978 
L 1159 0 
L 581 0 
L 581 3500 
L 1159 3500 
L 1159 2956 
Q 1356 3278 1631 3431 
Q 1906 3584 2284 3584 
Q 2666 3584 2933 3390 
Q 3200 3197 3328 2828 
z
" transform="scale(0.015625)"/>
       <path id="DejaVuSans-75" d="M 544 1381 
L 544 3500 
L 1119 3500 
L 1119 1403 
Q 1119 906 1312 657 
Q 1506 409 1894 409 
Q 2359 409 2629 706 
Q 2900 1003 2900 1516 
L 2900 3500 
L 3475 3500 
L 3475 0 
L 2900 0 
L 2900 538 
Q 2691 219 2414 64 
Q 2138 -91 1772 -91 
Q 1169 -91 856 284 
Q 544 659 544 1381 
z
M 1991 3584 
L 1991 3584 
z
" transform="scale(0.015625)"/>
       <path id="DejaVuSans-20" transform="scale(0.015625)"/>
       <path id="DejaVuSans-3d" d="M 678 2906 
L 4684 2906 
L 4684 2381 
L 678 2381 
L 678 2906 
z
M 678 1631 
L 4684 1631 
L 4684 1100 
L 678 1100 
L 678 1631 
z
" transform="scale(0.015625)"/>
       <path id="DejaVuSans-3b" d="M 750 3309 
L 1409 3309 
L 1409 2516 
L 750 2516 
L 750 3309 
z
M 750 794 
L 1409 794 
L 1409 256 
L 897 -744 
L 494 -744 
L 750 256 
L 750 794 
z
" transform="scale(0.015625)"/>
       <path id="DejaVuSans-73" d="M 2834 3397 
L 2834 2853 
Q 2591 2978 2328 3040 
Q 2066 3103 1784 3103 
Q 1356 3103 1142 2972 
Q 928 2841 928 2578 
Q 928 2378 1081 2264 
Q 1234 2150 1697 2047 
L 1894 2003 
Q 2506 1872 2764 1633 
Q 3022 1394 3022 966 
Q 3022 478 2636 193 
Q 2250 -91 1575 -91 
Q 1294 -91 989 -36 
Q 684 19 347 128 
L 347 722 
Q 666 556 975 473 
Q 1284 391 1588 391 
Q 1994 391 2212 530 
Q 2431 669 2431 922 
Q 2431 1156 2273 1281 
Q 2116 1406 1581 1522 
L 1381 1569 
Q 847 1681 609 1914 
Q 372 2147 372 2553 
Q 372 3047 722 3315 
Q 1072 3584 1716 3584 
Q 2034 3584 2315 3537 
Q 2597 3491 2834 3397 
z
" transform="scale(0.015625)"/>
       <path id="DejaVuSans-69" d="M 603 3500 
L 1178 3500 
L 1178 0 
L 603 0 
L 603 3500 
z
M 603 4863 
L 1178 4863 
L 1178 4134 
L 603 4134 
L 603 4863 
z
" transform="scale(0.015625)"/>
       <path id="DejaVuSans-67" d="M 2906 1791 
Q 2906 2416 2648 2759 
Q 2391 3103 1925 3103 
Q 1463 3103 1205 2759 
Q 947 2416 947 1791 
Q 947 1169 1205 825 
Q 1463 481 1925 481 
Q 2391 481 2648 825 
Q 2906 1169 2906 1791 
z
M 3481 434 
Q 3481 -459 3084 -895 
Q 2688 -1331 1869 -1331 
Q 1566 -1331 1297 -1286 
Q 1028 -1241 775 -1147 
L 775 -588 
Q 1028 -725 1275 -790 
Q 1522 -856 1778 -856 
Q 2344 -856 2625 -561 
Q 2906 -266 2906 331 
L 2906 616 
Q 2728 306 2450 153 
Q 2172 0 1784 0 
Q 1141 0 747 490 
Q 353 981 353 1791 
Q 353 2603 747 3093 
Q 1141 3584 1784 3584 
Q 2172 3584 2450 3431 
Q 2728 3278 2906 2969 
L 2906 3500 
L 3481 3500 
L 3481 434 
z
" transform="scale(0.015625)"/>
       <path id="DejaVuSans-61" d="M 2194 1759 
Q 1497 1759 1228 1600 
Q 959 1441 959 1056 
Q 959 750 1161 570 
Q 1363 391 1709 391 
Q 2188 391 2477 730 
Q 2766 1069 2766 1631 
L 2766 1759 
L 2194 1759 
z
M 3341 1997 
L 3341 0 
L 2766 0 
L 2766 531 
Q 2569 213 2275 61 
Q 1981 -91 1556 -91 
Q 1019 -91 701 211 
Q 384 513 384 1019 
Q 384 1609 779 1909 
Q 1175 2209 1959 2209 
L 2766 2209 
L 2766 2266 
Q 2766 2663 2505 2880 
Q 2244 3097 1772 3097 
Q 1472 3097 1187 3025 
Q 903 2953 641 2809 
L 641 3341 
Q 956 3463 1253 3523 
Q 1550 3584 1831 3584 
Q 2591 3584 2966 3190 
Q 3341 2797 3341 1997 
z
" transform="scale(0.015625)"/>
      </defs>
      <use xlink:href="#DejaVuSans-6d"/>
      <use xlink:href="#DejaVuSans-75" x="97.412109"/>
      <use xlink:href="#DejaVuSans-20" x="160.791016"/>
      <use xlink:href="#DejaVuSans-3d" x="192.578125"/>
      <use xlink:href="#DejaVuSans-20" x="276.367188"/>
      <use xlink:href="#DejaVuSans-35" x="308.154297"/>
      <use xlink:href="#DejaVuSans-3b" x="371.777344"/>
      <use xlink:href="#DejaVuSans-20" x="405.46875"/>
      <use xlink:href="#DejaVuSans-73" x="437.255859"/>
      <use xlink:href="#DejaVuSans-69" x="489.355469"/>
      <use xlink:href="#DejaVuSans-67" x="517.138672"/>
      <use xlink:href="#DejaVuSans-6d" x="580.615234"/>
      <use xlink:href="#DejaVuSans-61" x="678.027344"/>
      <use xlink:href="#DejaVuSans-20" x="739.306641"/>
      <use xlink:href="#DejaVuSans-3d" x="771.09375"/>
      <use xlink:href="#DejaVuSans-20" x="854.882812"/>
      <use xlink:href="#DejaVuSans-30" x="886.669922"/>
      <use xlink:href="#DejaVuSans-2e" x="950.292969"/>
      <use xlink:href="#DejaVuSans-35" x="982.080078"/>
     </g>
    </g>
   </g>
  </g>
 </g>
 <defs>
  <clipPath id="p6881a0b90b">
   <rect x="30.103125" y="7.2" width="279" height="166.32"/>
  </clipPath>
 </defs>
</svg>
