<?xml version="1.0" encoding="utf-8" standalone="no"?>
<!DOCTYPE svg PUBLIC "-//W3C//DTD SVG 1.1//EN"
  "http://www.w3.org/Graphics/SVG/1.1/DTD/svg11.dtd">
<svg xmlns:xlink="http://www.w3.org/1999/xlink" width="372.103125pt" height="252.838125pt" viewBox="0 0 372.103125 252.838125" xmlns="http://www.w3.org/2000/svg" version="1.1">
 <metadata>
  <rdf:RDF xmlns:dc="http://purl.org/dc/elements/1.1/" xmlns:cc="http://creativecommons.org/ns#" xmlns:rdf="http://www.w3.org/1999/02/22-rdf-syntax-ns#">
   <cc:Work>
    <dc:type rdf:resource="http://purl.org/dc/dcmitype/StillImage"/>
    <dc:date>2024-01-14T11:03:06.513988</dc:date>
    <dc:format>image/svg+xml</dc:format>
    <dc:creator>
     <cc:Agent>
      <dc:title>Matplotlib v3.7.1, https://matplotlib.org/</dc:title>
     </cc:Agent>
    </dc:creator>
   </cc:Work>
  </rdf:RDF>
 </metadata>
 <defs>
  <style type="text/css">*{stroke-linejoin: round; stroke-linecap: butt}</style>
 </defs>
 <g id="figure_1">
  <g id="patch_1">
   <path d="M 0 252.838125 
L 372.103125 252.838125 
L 372.103125 0 
L 0 0 
z
" style="fill: #ffffff"/>
  </g>
  <g id="axes_1">
   <g id="patch_2">
    <path d="M 30.103125 228.96 
L 364.903125 228.96 
L 364.903125 7.2 
L 30.103125 7.2 
z
" style="fill: #ffffff"/>
   </g>
   <g id="matplotlib.axis_1">
    <g id="xtick_1">
     <g id="line2d_1">
      <defs>
       <path id="me483d467cc" d="M 0 0 
L 0 3.5 
" style="stroke: #000000; stroke-width: 0.8"/>
      </defs>
      <g>
       <use xlink:href="#me483d467cc" x="45.321307" y="228.96" style="stroke: #000000; stroke-width: 0.8"/>
      </g>
     </g>
     <g id="text_1">
      <!-- 0 -->
      <g transform="translate(42.140057 243.558437) scale(0.1 -0.1)">
       <defs>
        <path id="DejaVuSans-30" d="M 2034 4250 
Q 1547 4250 1301 3770 
Q 1056 3291 1056 2328 
Q 1056 1369 1301 889 
Q 1547 409 2034 409 
Q 2525 409 2770 889 
Q 3016 1369 3016 2328 
Q 3016 3291 2770 3770 
Q 2525 4250 2034 4250 
z
M 2034 4750 
Q 2819 4750 3233 4129 
Q 3647 3509 3647 2328 
Q 3647 1150 3233 529 
Q 2819 -91 2034 -91 
Q 1250 -91 836 529 
Q 422 1150 422 2328 
Q 422 3509 836 4129 
Q 1250 4750 2034 4750 
z
" transform="scale(0.015625)"/>
       </defs>
       <use xlink:href="#DejaVuSans-30"/>
      </g>
     </g>
    </g>
    <g id="xtick_2">
     <g id="line2d_2">
      <g>
       <use xlink:href="#me483d467cc" x="106.194034" y="228.96" style="stroke: #000000; stroke-width: 0.8"/>
      </g>
     </g>
     <g id="text_2">
      <!-- 2 -->
      <g transform="translate(103.012784 243.558437) scale(0.1 -0.1)">
       <defs>
        <path id="DejaVuSans-32" d="M 1228 531 
L 3431 531 
L 3431 0 
L 469 0 
L 469 531 
Q 828 903 1448 1529 
Q 2069 2156 2228 2338 
Q 2531 2678 2651 2914 
Q 2772 3150 2772 3378 
Q 2772 3750 2511 3984 
Q 2250 4219 1831 4219 
Q 1534 4219 1204 4116 
Q 875 4013 500 3803 
L 500 4441 
Q 881 4594 1212 4672 
Q 1544 4750 1819 4750 
Q 2544 4750 2975 4387 
Q 3406 4025 3406 3419 
Q 3406 3131 3298 2873 
Q 3191 2616 2906 2266 
Q 2828 2175 2409 1742 
Q 1991 1309 1228 531 
z
" transform="scale(0.015625)"/>
       </defs>
       <use xlink:href="#DejaVuSans-32"/>
      </g>
     </g>
    </g>
    <g id="xtick_3">
     <g id="line2d_3">
      <g>
       <use xlink:href="#me483d467cc" x="167.066761" y="228.96" style="stroke: #000000; stroke-width: 0.8"/>
      </g>
     </g>
     <g id="text_3">
      <!-- 4 -->
      <g transform="translate(163.885511 243.558437) scale(0.1 -0.1)">
       <defs>
        <path id="DejaVuSans-34" d="M 2419 4116 
L 825 1625 
L 2419 1625 
L 2419 4116 
z
M 2253 4666 
L 3047 4666 
L 3047 1625 
L 3713 1625 
L 3713 1100 
L 3047 1100 
L 3047 0 
L 2419 0 
L 2419 1100 
L 313 1100 
L 313 1709 
L 2253 4666 
z
" transform="scale(0.015625)"/>
       </defs>
       <use xlink:href="#DejaVuSans-34"/>
      </g>
     </g>
    </g>
    <g id="xtick_4">
     <g id="line2d_4">
      <g>
       <use xlink:href="#me483d467cc" x="227.939489" y="228.96" style="stroke: #000000; stroke-width: 0.8"/>
      </g>
     </g>
     <g id="text_4">
      <!-- 6 -->
      <g transform="translate(224.758239 243.558437) scale(0.1 -0.1)">
       <defs>
        <path id="DejaVuSans-36" d="M 2113 2584 
Q 1688 2584 1439 2293 
Q 1191 2003 1191 1497 
Q 1191 994 1439 701 
Q 1688 409 2113 409 
Q 2538 409 2786 701 
Q 3034 994 3034 1497 
Q 3034 2003 2786 2293 
Q 2538 2584 2113 2584 
z
M 3366 4563 
L 3366 3988 
Q 3128 4100 2886 4159 
Q 2644 4219 2406 4219 
Q 1781 4219 1451 3797 
Q 1122 3375 1075 2522 
Q 1259 2794 1537 2939 
Q 1816 3084 2150 3084 
Q 2853 3084 3261 2657 
Q 3669 2231 3669 1497 
Q 3669 778 3244 343 
Q 2819 -91 2113 -91 
Q 1303 -91 875 529 
Q 447 1150 447 2328 
Q 447 3434 972 4092 
Q 1497 4750 2381 4750 
Q 2619 4750 2861 4703 
Q 3103 4656 3366 4563 
z
" transform="scale(0.015625)"/>
       </defs>
       <use xlink:href="#DejaVuSans-36"/>
      </g>
     </g>
    </g>
    <g id="xtick_5">
     <g id="line2d_5">
      <g>
       <use xlink:href="#me483d467cc" x="288.812216" y="228.96" style="stroke: #000000; stroke-width: 0.8"/>
      </g>
     </g>
     <g id="text_5">
      <!-- 8 -->
      <g transform="translate(285.630966 243.558437) scale(0.1 -0.1)">
       <defs>
        <path id="DejaVuSans-38" d="M 2034 2216 
Q 1584 2216 1326 1975 
Q 1069 1734 1069 1313 
Q 1069 891 1326 650 
Q 1584 409 2034 409 
Q 2484 409 2743 651 
Q 3003 894 3003 1313 
Q 3003 1734 2745 1975 
Q 2488 2216 2034 2216 
z
M 1403 2484 
Q 997 2584 770 2862 
Q 544 3141 544 3541 
Q 544 4100 942 4425 
Q 1341 4750 2034 4750 
Q 2731 4750 3128 4425 
Q 3525 4100 3525 3541 
Q 3525 3141 3298 2862 
Q 3072 2584 2669 2484 
Q 3125 2378 3379 2068 
Q 3634 1759 3634 1313 
Q 3634 634 3220 271 
Q 2806 -91 2034 -91 
Q 1263 -91 848 271 
Q 434 634 434 1313 
Q 434 1759 690 2068 
Q 947 2378 1403 2484 
z
M 1172 3481 
Q 1172 3119 1398 2916 
Q 1625 2713 2034 2713 
Q 2441 2713 2670 2916 
Q 2900 3119 2900 3481 
Q 2900 3844 2670 4047 
Q 2441 4250 2034 4250 
Q 1625 4250 1398 4047 
Q 1172 3844 1172 3481 
z
" transform="scale(0.015625)"/>
       </defs>
       <use xlink:href="#DejaVuSans-38"/>
      </g>
     </g>
    </g>
    <g id="xtick_6">
     <g id="line2d_6">
      <g>
       <use xlink:href="#me483d467cc" x="349.684943" y="228.96" style="stroke: #000000; stroke-width: 0.8"/>
      </g>
     </g>
     <g id="text_6">
      <!-- 10 -->
      <g transform="translate(343.322443 243.558437) scale(0.1 -0.1)">
       <defs>
        <path id="DejaVuSans-31" d="M 794 531 
L 1825 531 
L 1825 4091 
L 703 3866 
L 703 4441 
L 1819 4666 
L 2450 4666 
L 2450 531 
L 3481 531 
L 3481 0 
L 794 0 
L 794 531 
z
" transform="scale(0.015625)"/>
       </defs>
       <use xlink:href="#DejaVuSans-31"/>
       <use xlink:href="#DejaVuSans-30" x="63.623047"/>
      </g>
     </g>
    </g>
   </g>
   <g id="matplotlib.axis_2">
    <g id="ytick_1">
     <g id="line2d_7">
      <defs>
       <path id="me04627dcef" d="M 0 0 
L -3.5 0 
" style="stroke: #000000; stroke-width: 0.8"/>
      </defs>
      <g>
       <use xlink:href="#me04627dcef" x="30.103125" y="218.88" style="stroke: #000000; stroke-width: 0.8"/>
      </g>
     </g>
     <g id="text_7">
      <!-- 0.0 -->
      <g transform="translate(7.2 222.679219) scale(0.1 -0.1)">
       <defs>
        <path id="DejaVuSans-2e" d="M 684 794 
L 1344 794 
L 1344 0 
L 684 0 
L 684 794 
z
" transform="scale(0.015625)"/>
       </defs>
       <use xlink:href="#DejaVuSans-30"/>
       <use xlink:href="#DejaVuSans-2e" x="63.623047"/>
       <use xlink:href="#DejaVuSans-30" x="95.410156"/>
      </g>
     </g>
    </g>
    <g id="ytick_2">
     <g id="line2d_8">
      <g>
       <use xlink:href="#me04627dcef" x="30.103125" y="188.548999" style="stroke: #000000; stroke-width: 0.8"/>
      </g>
     </g>
     <g id="text_8">
      <!-- 0.2 -->
      <g transform="translate(7.2 192.348217) scale(0.1 -0.1)">
       <use xlink:href="#DejaVuSans-30"/>
       <use xlink:href="#DejaVuSans-2e" x="63.623047"/>
       <use xlink:href="#DejaVuSans-32" x="95.410156"/>
      </g>
     </g>
    </g>
    <g id="ytick_3">
     <g id="line2d_9">
      <g>
       <use xlink:href="#me04627dcef" x="30.103125" y="158.217997" style="stroke: #000000; stroke-width: 0.8"/>
      </g>
     </g>
     <g id="text_9">
      <!-- 0.4 -->
      <g transform="translate(7.2 162.017216) scale(0.1 -0.1)">
       <use xlink:href="#DejaVuSans-30"/>
       <use xlink:href="#DejaVuSans-2e" x="63.623047"/>
       <use xlink:href="#DejaVuSans-34" x="95.410156"/>
      </g>
     </g>
    </g>
    <g id="ytick_4">
     <g id="line2d_10">
      <g>
       <use xlink:href="#me04627dcef" x="30.103125" y="127.886996" style="stroke: #000000; stroke-width: 0.8"/>
      </g>
     </g>
     <g id="text_10">
      <!-- 0.6 -->
      <g transform="translate(7.2 131.686215) scale(0.1 -0.1)">
       <use xlink:href="#DejaVuSans-30"/>
       <use xlink:href="#DejaVuSans-2e" x="63.623047"/>
       <use xlink:href="#DejaVuSans-36" x="95.410156"/>
      </g>
     </g>
    </g>
    <g id="ytick_5">
     <g id="line2d_11">
      <g>
       <use xlink:href="#me04627dcef" x="30.103125" y="97.555995" style="stroke: #000000; stroke-width: 0.8"/>
      </g>
     </g>
     <g id="text_11">
      <!-- 0.8 -->
      <g transform="translate(7.2 101.355214) scale(0.1 -0.1)">
       <use xlink:href="#DejaVuSans-30"/>
       <use xlink:href="#DejaVuSans-2e" x="63.623047"/>
       <use xlink:href="#DejaVuSans-38" x="95.410156"/>
      </g>
     </g>
    </g>
    <g id="ytick_6">
     <g id="line2d_12">
      <g>
       <use xlink:href="#me04627dcef" x="30.103125" y="67.224993" style="stroke: #000000; stroke-width: 0.8"/>
      </g>
     </g>
     <g id="text_12">
      <!-- 1.0 -->
      <g transform="translate(7.2 71.024212) scale(0.1 -0.1)">
       <use xlink:href="#DejaVuSans-31"/>
       <use xlink:href="#DejaVuSans-2e" x="63.623047"/>
       <use xlink:href="#DejaVuSans-30" x="95.410156"/>
      </g>
     </g>
    </g>
    <g id="ytick_7">
     <g id="line2d_13">
      <g>
       <use xlink:href="#me04627dcef" x="30.103125" y="36.893992" style="stroke: #000000; stroke-width: 0.8"/>
      </g>
     </g>
     <g id="text_13">
      <!-- 1.2 -->
      <g transform="translate(7.2 40.693211) scale(0.1 -0.1)">
       <use xlink:href="#DejaVuSans-31"/>
       <use xlink:href="#DejaVuSans-2e" x="63.623047"/>
       <use xlink:href="#DejaVuSans-32" x="95.410156"/>
      </g>
     </g>
    </g>
   </g>
   <g id="line2d_14">
    <path d="M 45.321307 218.88 
L 140.473065 218.772045 
L 145.352642 218.538991 
L 148.402378 218.215807 
L 150.842167 217.780084 
L 153.281955 217.104741 
L 155.111797 216.380443 
L 156.941638 215.41115 
L 158.77148 214.135079 
L 160.601321 212.482746 
L 161.821216 211.135114 
L 163.04111 209.56365 
L 164.261004 207.745109 
L 166.090846 204.504805 
L 167.920687 200.587941 
L 169.750529 195.937934 
L 171.58037 190.518871 
L 173.410212 184.323037 
L 175.240053 177.378031 
L 177.679842 167.078105 
L 180.729578 152.963446 
L 186.82905 124.263304 
L 188.658891 116.678938 
L 190.488733 110.071177 
L 191.708627 106.337917 
L 192.928521 103.22214 
L 194.148416 100.781408 
L 195.36831 99.061562 
L 195.978257 98.482733 
L 196.588204 98.095294 
L 197.198151 97.901107 
L 197.808099 97.901107 
L 198.418046 98.095294 
L 199.027993 98.482733 
L 199.63794 99.061562 
L 200.247887 99.829009 
L 201.467782 101.914235 
L 202.687676 104.69899 
L 203.90757 108.131371 
L 205.127465 112.148601 
L 206.957306 119.11217 
L 208.787148 126.960021 
L 211.836883 141.227451 
L 216.716461 164.345576 
L 219.156249 174.907169 
L 220.986091 182.088773 
L 222.815932 188.539328 
L 224.645774 194.218063 
L 226.475615 199.12167 
L 228.305457 203.277494 
L 230.135298 206.736062 
L 231.96514 209.56365 
L 233.794981 211.835452 
L 235.624823 213.629731 
L 237.454664 215.023165 
L 239.284506 216.087446 
L 241.114347 216.887065 
L 242.944189 217.478136 
L 245.383978 218.022524 
L 248.433713 218.432626 
L 252.093396 218.68565 
L 258.192868 218.837411 
L 272.8316 218.879421 
L 349.684943 218.88 
L 349.684943 218.88 
" clip-path="url(#pa0b8d36119)" style="fill: none; stroke: #1f77b4; stroke-width: 1.5; stroke-linecap: square"/>
   </g>
   <g id="line2d_15">
    <path d="M 45.321307 218.879775 
L 89.237503 218.771809 
L 99.606605 218.537009 
L 106.925971 218.157816 
L 112.415495 217.664683 
L 117.295073 217.001743 
L 121.564703 216.188275 
L 125.224386 215.272727 
L 128.884069 214.115159 
L 131.933805 212.937399 
L 134.98354 211.542564 
L 138.033276 209.910842 
L 141.083012 208.025778 
L 144.132748 205.875749 
L 147.182484 203.455482 
L 150.23222 200.767537 
L 153.891903 197.205908 
L 157.551586 193.316203 
L 161.821216 188.448639 
L 169.750529 178.956763 
L 174.630106 173.262504 
L 178.289789 169.30813 
L 181.339525 166.335721 
L 183.779314 164.226487 
L 186.219102 162.396696 
L 188.658891 160.879536 
L 190.488733 159.963947 
L 192.318574 159.249825 
L 194.148416 158.744795 
L 195.978257 158.454289 
L 197.808099 158.381443 
L 199.63794 158.527047 
L 201.467782 158.889524 
L 203.297623 159.464966 
L 205.127465 160.247196 
L 206.957306 161.227885 
L 209.397095 162.826051 
L 211.836883 164.728992 
L 214.276672 166.902398 
L 217.326408 169.94112 
L 220.986091 173.953387 
L 225.865668 179.687527 
L 235.624823 191.267038 
L 239.894453 195.943171 
L 243.554136 199.619704 
L 246.603872 202.411987 
L 249.653608 204.940118 
L 252.703344 207.198016 
L 255.753079 209.187993 
L 258.802815 210.919314 
L 261.852551 212.406682 
L 264.902287 213.668738 
L 268.56197 214.9157 
L 272.221653 215.907574 
L 275.881336 216.683269 
L 280.150966 217.364285 
L 285.030543 217.911787 
L 291.130015 218.346708 
L 298.449381 218.632751 
L 309.42843 218.809968 
L 330.776581 218.875848 
L 349.684943 218.879775 
L 349.684943 218.879775 
" clip-path="url(#pa0b8d36119)" style="fill: none; stroke: #ff7f0e; stroke-width: 1.5; stroke-linecap: square"/>
   </g>
   <g id="line2d_16">
    <path d="M 45.321307 218.88 
L 131.323857 218.785106 
L 134.373593 218.548235 
L 136.203435 218.213606 
L 137.423329 217.842531 
L 138.643223 217.293401 
L 139.863118 216.496542 
L 141.083012 215.362809 
L 142.302906 213.781613 
L 143.522801 211.620316 
L 144.742695 208.725677 
L 145.962589 204.92813 
L 147.182484 200.049489 
L 148.402378 193.914515 
L 149.622272 186.366317 
L 150.842167 177.285056 
L 152.062061 166.608717 
L 153.281955 154.354109 
L 155.111797 133.293411 
L 157.551586 101.7045 
L 160.601321 61.926141 
L 161.821216 47.886155 
L 163.04111 35.885856 
L 164.261004 26.507876 
L 164.870952 22.955972 
L 165.480899 20.226912 
L 166.090846 18.356629 
L 166.700793 17.369939 
L 167.31074 17.28 
L 167.920687 18.088012 
L 168.530635 19.783195 
L 169.140582 22.343028 
L 169.750529 25.733747 
L 170.970423 34.821229 
L 172.190318 46.584086 
L 173.410212 60.448448 
L 175.850001 91.904548 
L 178.899736 131.790922 
L 180.729578 153.045317 
L 182.559419 171.071587 
L 183.779314 181.107041 
L 184.999208 189.563919 
L 186.219102 196.529921 
L 187.438997 202.142121 
L 188.658891 206.566825 
L 189.878785 209.982092 
L 191.09868 212.563828 
L 192.318574 214.475787 
L 193.538468 215.863309 
L 194.758363 216.850254 
L 195.978257 217.538469 
L 197.198151 218.009021 
L 199.027993 218.43936 
L 201.467782 218.713126 
L 205.127465 218.845982 
L 215.496566 218.879843 
L 349.684943 218.88 
L 349.684943 218.88 
" clip-path="url(#pa0b8d36119)" style="fill: none; stroke: #2ca02c; stroke-width: 1.5; stroke-linecap: square"/>
   </g>
   <g id="patch_3">
    <path d="M 30.103125 228.96 
L 30.103125 7.2 
" style="fill: none; stroke: #000000; stroke-width: 0.8; stroke-linejoin: miter; stroke-linecap: square"/>
   </g>
   <g id="patch_4">
    <path d="M 364.903125 228.96 
L 364.903125 7.2 
" style="fill: none; stroke: #000000; stroke-width: 0.8; stroke-linejoin: miter; stroke-linecap: square"/>
   </g>
   <g id="patch_5">
    <path d="M 30.103125 228.96 
L 364.903125 228.96 
" style="fill: none; stroke: #000000; stroke-width: 0.8; stroke-linejoin: miter; stroke-linecap: square"/>
   </g>
   <g id="patch_6">
    <path d="M 30.103125 7.2 
L 364.903125 7.2 
" style="fill: none; stroke: #000000; stroke-width: 0.8; stroke-linejoin: miter; stroke-linecap: square"/>
   </g>
   <g id="legend_1">
    <g id="patch_7">
     <path d="M 211.795313 59.234375 
L 357.903125 59.234375 
Q 359.903125 59.234375 359.903125 57.234375 
L 359.903125 14.2 
Q 359.903125 12.2 357.903125 12.2 
L 211.795313 12.2 
Q 209.795313 12.2 209.795313 14.2 
L 209.795313 57.234375 
Q 209.795313 59.234375 211.795313 59.234375 
z
" style="fill: #ffffff; opacity: 0.8; stroke: #cccccc; stroke-linejoin: miter"/>
    </g>
    <g id="line2d_17">
     <path d="M 213.795313 20.298437 
L 223.795313 20.298437 
L 233.795313 20.298437 
" style="fill: none; stroke: #1f77b4; stroke-width: 1.5; stroke-linecap: square"/>
    </g>
    <g id="text_14">
     <!-- mu = 5.0; sigma = 0.5 -->
     <g transform="translate(241.795313 23.798437) scale(0.1 -0.1)">
      <defs>
       <path id="DejaVuSans-6d" d="M 3328 2828 
Q 3544 3216 3844 3400 
Q 4144 3584 4550 3584 
Q 5097 3584 5394 3201 
Q 5691 2819 5691 2113 
L 5691 0 
L 5113 0 
L 5113 2094 
Q 5113 2597 4934 2840 
Q 4756 3084 4391 3084 
Q 3944 3084 3684 2787 
Q 3425 2491 3425 1978 
L 3425 0 
L 2847 0 
L 2847 2094 
Q 2847 2600 2669 2842 
Q 2491 3084 2119 3084 
Q 1678 3084 1418 2786 
Q 1159 2488 1159 1978 
L 1159 0 
L 581 0 
L 581 3500 
L 1159 3500 
L 1159 2956 
Q 1356 3278 1631 3431 
Q 1906 3584 2284 3584 
Q 2666 3584 2933 3390 
Q 3200 3197 3328 2828 
z
" transform="scale(0.015625)"/>
       <path id="DejaVuSans-75" d="M 544 1381 
L 544 3500 
L 1119 3500 
L 1119 1403 
Q 1119 906 1312 657 
Q 1506 409 1894 409 
Q 2359 409 2629 706 
Q 2900 1003 2900 1516 
L 2900 3500 
L 3475 3500 
L 3475 0 
L 2900 0 
L 2900 538 
Q 2691 219 2414 64 
Q 2138 -91 1772 -91 
Q 1169 -91 856 284 
Q 544 659 544 1381 
z
M 1991 3584 
L 1991 3584 
z
" transform="scale(0.015625)"/>
       <path id="DejaVuSans-20" transform="scale(0.015625)"/>
       <path id="DejaVuSans-3d" d="M 678 2906 
L 4684 2906 
L 4684 2381 
L 678 2381 
L 678 2906 
z
M 678 1631 
L 4684 1631 
L 4684 1100 
L 678 1100 
L 678 1631 
z
" transform="scale(0.015625)"/>
       <path id="DejaVuSans-35" d="M 691 4666 
L 3169 4666 
L 3169 4134 
L 1269 4134 
L 1269 2991 
Q 1406 3038 1543 3061 
Q 1681 3084 1819 3084 
Q 2600 3084 3056 2656 
Q 3513 2228 3513 1497 
Q 3513 744 3044 326 
Q 2575 -91 1722 -91 
Q 1428 -91 1123 -41 
Q 819 9 494 109 
L 494 744 
Q 775 591 1075 516 
Q 1375 441 1709 441 
Q 2250 441 2565 725 
Q 2881 1009 2881 1497 
Q 2881 1984 2565 2268 
Q 2250 2553 1709 2553 
Q 1456 2553 1204 2497 
Q 953 2441 691 2322 
L 691 4666 
z
" transform="scale(0.015625)"/>
       <path id="DejaVuSans-3b" d="M 750 3309 
L 1409 3309 
L 1409 2516 
L 750 2516 
L 750 3309 
z
M 750 794 
L 1409 794 
L 1409 256 
L 897 -744 
L 494 -744 
L 750 256 
L 750 794 
z
" transform="scale(0.015625)"/>
       <path id="DejaVuSans-73" d="M 2834 3397 
L 2834 2853 
Q 2591 2978 2328 3040 
Q 2066 3103 1784 3103 
Q 1356 3103 1142 2972 
Q 928 2841 928 2578 
Q 928 2378 1081 2264 
Q 1234 2150 1697 2047 
L 1894 2003 
Q 2506 1872 2764 1633 
Q 3022 1394 3022 966 
Q 3022 478 2636 193 
Q 2250 -91 1575 -91 
Q 1294 -91 989 -36 
Q 684 19 347 128 
L 347 722 
Q 666 556 975 473 
Q 1284 391 1588 391 
Q 1994 391 2212 530 
Q 2431 669 2431 922 
Q 2431 1156 2273 1281 
Q 2116 1406 1581 1522 
L 1381 1569 
Q 847 1681 609 1914 
Q 372 2147 372 2553 
Q 372 3047 722 3315 
Q 1072 3584 1716 3584 
Q 2034 3584 2315 3537 
Q 2597 3491 2834 3397 
z
" transform="scale(0.015625)"/>
       <path id="DejaVuSans-69" d="M 603 3500 
L 1178 3500 
L 1178 0 
L 603 0 
L 603 3500 
z
M 603 4863 
L 1178 4863 
L 1178 4134 
L 603 4134 
L 603 4863 
z
" transform="scale(0.015625)"/>
       <path id="DejaVuSans-67" d="M 2906 1791 
Q 2906 2416 2648 2759 
Q 2391 3103 1925 3103 
Q 1463 3103 1205 2759 
Q 947 2416 947 1791 
Q 947 1169 1205 825 
Q 1463 481 1925 481 
Q 2391 481 2648 825 
Q 2906 1169 2906 1791 
z
M 3481 434 
Q 3481 -459 3084 -895 
Q 2688 -1331 1869 -1331 
Q 1566 -1331 1297 -1286 
Q 1028 -1241 775 -1147 
L 775 -588 
Q 1028 -725 1275 -790 
Q 1522 -856 1778 -856 
Q 2344 -856 2625 -561 
Q 2906 -266 2906 331 
L 2906 616 
Q 2728 306 2450 153 
Q 2172 0 1784 0 
Q 1141 0 747 490 
Q 353 981 353 1791 
Q 353 2603 747 3093 
Q 1141 3584 1784 3584 
Q 2172 3584 2450 3431 
Q 2728 3278 2906 2969 
L 2906 3500 
L 3481 3500 
L 3481 434 
z
" transform="scale(0.015625)"/>
       <path id="DejaVuSans-61" d="M 2194 1759 
Q 1497 1759 1228 1600 
Q 959 1441 959 1056 
Q 959 750 1161 570 
Q 1363 391 1709 391 
Q 2188 391 2477 730 
Q 2766 1069 2766 1631 
L 2766 1759 
L 2194 1759 
z
M 3341 1997 
L 3341 0 
L 2766 0 
L 2766 531 
Q 2569 213 2275 61 
Q 1981 -91 1556 -91 
Q 1019 -91 701 211 
Q 384 513 384 1019 
Q 384 1609 779 1909 
Q 1175 2209 1959 2209 
L 2766 2209 
L 2766 2266 
Q 2766 2663 2505 2880 
Q 2244 3097 1772 3097 
Q 1472 3097 1187 3025 
Q 903 2953 641 2809 
L 641 3341 
Q 956 3463 1253 3523 
Q 1550 3584 1831 3584 
Q 2591 3584 2966 3190 
Q 3341 2797 3341 1997 
z
" transform="scale(0.015625)"/>
      </defs>
      <use xlink:href="#DejaVuSans-6d"/>
      <use xlink:href="#DejaVuSans-75" x="97.412109"/>
      <use xlink:href="#DejaVuSans-20" x="160.791016"/>
      <use xlink:href="#DejaVuSans-3d" x="192.578125"/>
      <use xlink:href="#DejaVuSans-20" x="276.367188"/>
      <use xlink:href="#DejaVuSans-35" x="308.154297"/>
      <use xlink:href="#DejaVuSans-2e" x="371.777344"/>
      <use xlink:href="#DejaVuSans-30" x="403.564453"/>
      <use xlink:href="#DejaVuSans-3b" x="467.1875"/>
      <use xlink:href="#DejaVuSans-20" x="500.878906"/>
      <use xlink:href="#DejaVuSans-73" x="532.666016"/>
      <use xlink:href="#DejaVuSans-69" x="584.765625"/>
      <use xlink:href="#DejaVuSans-67" x="612.548828"/>
      <use xlink:href="#DejaVuSans-6d" x="676.025391"/>
      <use xlink:href="#DejaVuSans-61" x="773.4375"/>
      <use xlink:href="#DejaVuSans-20" x="834.716797"/>
      <use xlink:href="#DejaVuSans-3d" x="866.503906"/>
      <use xlink:href="#DejaVuSans-20" x="950.292969"/>
      <use xlink:href="#DejaVuSans-30" x="982.080078"/>
      <use xlink:href="#DejaVuSans-2e" x="1045.703125"/>
      <use xlink:href="#DejaVuSans-35" x="1077.490234"/>
     </g>
    </g>
    <g id="line2d_18">
     <path d="M 213.795313 34.976562 
L 223.795313 34.976562 
L 233.795313 34.976562 
" style="fill: none; stroke: #ff7f0e; stroke-width: 1.5; stroke-linecap: square"/>
    </g>
    <g id="text_15">
     <!-- mu = 5.0; sigma = 1.0 -->
     <g transform="translate(241.795313 38.476562) scale(0.1 -0.1)">
      <use xlink:href="#DejaVuSans-6d"/>
      <use xlink:href="#DejaVuSans-75" x="97.412109"/>
      <use xlink:href="#DejaVuSans-20" x="160.791016"/>
      <use xlink:href="#DejaVuSans-3d" x="192.578125"/>
      <use xlink:href="#DejaVuSans-20" x="276.367188"/>
      <use xlink:href="#DejaVuSans-35" x="308.154297"/>
      <use xlink:href="#DejaVuSans-2e" x="371.777344"/>
      <use xlink:href="#DejaVuSans-30" x="403.564453"/>
      <use xlink:href="#DejaVuSans-3b" x="467.1875"/>
      <use xlink:href="#DejaVuSans-20" x="500.878906"/>
      <use xlink:href="#DejaVuSans-73" x="532.666016"/>
      <use xlink:href="#DejaVuSans-69" x="584.765625"/>
      <use xlink:href="#DejaVuSans-67" x="612.548828"/>
      <use xlink:href="#DejaVuSans-6d" x="676.025391"/>
      <use xlink:href="#DejaVuSans-61" x="773.4375"/>
      <use xlink:href="#DejaVuSans-20" x="834.716797"/>
      <use xlink:href="#DejaVuSans-3d" x="866.503906"/>
      <use xlink:href="#DejaVuSans-20" x="950.292969"/>
      <use xlink:href="#DejaVuSans-31" x="982.080078"/>
      <use xlink:href="#DejaVuSans-2e" x="1045.703125"/>
      <use xlink:href="#DejaVuSans-30" x="1077.490234"/>
     </g>
    </g>
    <g id="line2d_19">
     <path d="M 213.795313 49.654687 
L 223.795313 49.654687 
L 233.795313 49.654687 
" style="fill: none; stroke: #2ca02c; stroke-width: 1.5; stroke-linecap: square"/>
    </g>
    <g id="text_16">
     <!-- mu = 4.0; sigma = 0.3 -->
     <g transform="translate(241.795313 53.154687) scale(0.1 -0.1)">
      <defs>
       <path id="DejaVuSans-33" d="M 2597 2516 
Q 3050 2419 3304 2112 
Q 3559 1806 3559 1356 
Q 3559 666 3084 287 
Q 2609 -91 1734 -91 
Q 1441 -91 1130 -33 
Q 819 25 488 141 
L 488 750 
Q 750 597 1062 519 
Q 1375 441 1716 441 
Q 2309 441 2620 675 
Q 2931 909 2931 1356 
Q 2931 1769 2642 2001 
Q 2353 2234 1838 2234 
L 1294 2234 
L 1294 2753 
L 1863 2753 
Q 2328 2753 2575 2939 
Q 2822 3125 2822 3475 
Q 2822 3834 2567 4026 
Q 2313 4219 1838 4219 
Q 1578 4219 1281 4162 
Q 984 4106 628 3988 
L 628 4550 
Q 988 4650 1302 4700 
Q 1616 4750 1894 4750 
Q 2613 4750 3031 4423 
Q 3450 4097 3450 3541 
Q 3450 3153 3228 2886 
Q 3006 2619 2597 2516 
z
" transform="scale(0.015625)"/>
      </defs>
      <use xlink:href="#DejaVuSans-6d"/>
      <use xlink:href="#DejaVuSans-75" x="97.412109"/>
      <use xlink:href="#DejaVuSans-20" x="160.791016"/>
      <use xlink:href="#DejaVuSans-3d" x="192.578125"/>
      <use xlink:href="#DejaVuSans-20" x="276.367188"/>
      <use xlink:href="#DejaVuSans-34" x="308.154297"/>
      <use xlink:href="#DejaVuSans-2e" x="371.777344"/>
      <use xlink:href="#DejaVuSans-30" x="403.564453"/>
      <use xlink:href="#DejaVuSans-3b" x="467.1875"/>
      <use xlink:href="#DejaVuSans-20" x="500.878906"/>
      <use xlink:href="#DejaVuSans-73" x="532.666016"/>
      <use xlink:href="#DejaVuSans-69" x="584.765625"/>
      <use xlink:href="#DejaVuSans-67" x="612.548828"/>
      <use xlink:href="#DejaVuSans-6d" x="676.025391"/>
      <use xlink:href="#DejaVuSans-61" x="773.4375"/>
      <use xlink:href="#DejaVuSans-20" x="834.716797"/>
      <use xlink:href="#DejaVuSans-3d" x="866.503906"/>
      <use xlink:href="#DejaVuSans-20" x="950.292969"/>
      <use xlink:href="#DejaVuSans-30" x="982.080078"/>
      <use xlink:href="#DejaVuSans-2e" x="1045.703125"/>
      <use xlink:href="#DejaVuSans-33" x="1077.490234"/>
     </g>
    </g>
   </g>
  </g>
 </g>
 <defs>
  <clipPath id="pa0b8d36119">
   <rect x="30.103125" y="7.2" width="334.8" height="221.76"/>
  </clipPath>
 </defs>
</svg>
